<svg width="100" height="105" viewBox="0 0 100 105" fill="none" xmlns="http://www.w3.org/2000/svg">
<path d="M24.3477 49.4649L31.8242 1.95405C32.082 0.334846 34.2734 -0.0486501 35.0469 1.40011L43.082 16.3138L24.3477 49.4649ZM77.5 61.0124L70.3672 17.2513C70.1523 15.8877 68.4336 15.3338 67.4453 16.3138L22.5 61.0124L47.3789 74.8608C48.9258 75.7131 50.8594 75.7131 52.4062 74.8608L77.5 61.0124ZM57.3047 22.8333L51.5469 11.9675C50.9023 10.7318 49.1406 10.7318 48.4961 11.9675L23.1875 56.7087L57.3047 22.8333Z" fill="black"/>
<path d="M19.4764 99.5V88.3H26.9244V90.268H21.5484V92.732H24.9884V94.7H21.5484V99.5H19.4764ZM28.5999 99.5V91.324H30.5999V99.5H28.5999ZM29.5999 90.3C29.2799 90.3 29.0026 90.1853 28.7679 89.956C28.5386 89.7213 28.4239 89.444 28.4239 89.124C28.4239 88.804 28.5386 88.532 28.7679 88.308C28.9973 88.0787 29.2746 87.964 29.5999 87.964C29.9359 87.964 30.2159 88.076 30.4399 88.3C30.6639 88.524 30.7759 88.7987 30.7759 89.124C30.7759 89.4493 30.6613 89.7267 30.4319 89.956C30.2079 90.1853 29.9306 90.3 29.5999 90.3ZM33.1152 99.5V91.324H35.1152V92.204C35.2645 91.8893 35.4992 91.6333 35.8192 91.436C36.1392 91.2333 36.4752 91.132 36.8272 91.132C37.4085 91.132 37.8992 91.332 38.2992 91.732L38.0192 93.564C37.8005 93.3827 37.5872 93.2547 37.3792 93.18C37.1712 93.1053 36.9419 93.068 36.6912 93.068C36.3605 93.068 36.0779 93.1453 35.8432 93.3C35.6085 93.4547 35.4272 93.6787 35.2992 93.972C35.1765 94.2653 35.1152 94.6173 35.1152 95.028V99.5H33.1152ZM42.7176 99.692C41.9336 99.692 41.2562 99.516 40.6856 99.164C40.1202 98.812 39.6829 98.316 39.3736 97.676C39.0696 97.0307 38.9176 96.2733 38.9176 95.404C38.9176 94.524 39.0722 93.764 39.3816 93.124C39.6962 92.484 40.1362 91.9933 40.7016 91.652C41.2722 91.3053 41.9442 91.132 42.7176 91.132C43.3789 91.132 43.9789 91.2707 44.5176 91.548C45.0562 91.8253 45.4856 92.252 45.8056 92.828C46.1256 93.3987 46.2856 94.1267 46.2856 95.012C46.2856 95.1507 46.2802 95.3213 46.2696 95.524C46.2642 95.7213 46.2509 95.9213 46.2296 96.124H40.8936C40.9149 96.4973 41.0002 96.8253 41.1496 97.108C41.3042 97.3853 41.5149 97.6013 41.7816 97.756C42.0482 97.9107 42.3629 97.988 42.7256 97.988C43.1149 97.988 43.4536 97.924 43.7416 97.796C44.0296 97.6627 44.3016 97.452 44.5576 97.164L45.7096 98.356C45.3576 98.756 44.9336 99.0787 44.4376 99.324C43.9416 99.5693 43.3682 99.692 42.7176 99.692ZM40.9016 94.564H44.3496C44.3229 94.2067 44.2429 93.9 44.1096 93.644C43.9762 93.3827 43.7896 93.1827 43.5496 93.044C43.3096 92.9053 43.0189 92.836 42.6776 92.836C42.2082 92.836 41.8082 92.98 41.4776 93.268C41.1469 93.556 40.9549 93.988 40.9016 94.564ZM51.9678 99.692C51.5945 99.692 51.2718 99.6253 50.9998 99.492C50.7331 99.3587 50.4851 99.1427 50.2558 98.844V99.5H48.2558V88.852L50.2558 87.948V91.964C50.4638 91.6973 50.7198 91.492 51.0238 91.348C51.3331 91.204 51.6691 91.132 52.0318 91.132C52.7091 91.132 53.3011 91.3107 53.8078 91.668C54.3145 92.0253 54.7091 92.5267 54.9918 93.172C55.2798 93.812 55.4238 94.556 55.4238 95.404C55.4238 96.7533 55.1171 97.8067 54.5038 98.564C53.8958 99.316 53.0505 99.692 51.9678 99.692ZM51.7278 97.78C52.2718 97.78 52.6878 97.5747 52.9758 97.164C53.2691 96.7533 53.4158 96.1667 53.4158 95.404C53.4158 94.6413 53.2691 94.0573 52.9758 93.652C52.6878 93.2413 52.2718 93.036 51.7278 93.036C51.4291 93.036 51.1465 93.1027 50.8798 93.236C50.6131 93.364 50.4051 93.5373 50.2558 93.756V97.06C50.4211 97.2947 50.6238 97.4733 50.8638 97.596C51.1038 97.7187 51.3918 97.78 51.7278 97.78ZM59.9687 99.692C59.078 99.692 58.3714 99.452 57.8487 98.972C57.3314 98.4867 57.0727 97.8307 57.0727 97.004C57.0727 96.4707 57.206 96.004 57.4727 95.604C57.7447 95.1987 58.1207 94.8867 58.6007 94.668C59.086 94.444 59.6514 94.332 60.2967 94.332C60.654 94.332 60.998 94.3667 61.3287 94.436C61.6647 94.5 61.958 94.5933 62.2087 94.716V94.204C62.2087 93.7453 62.078 93.4013 61.8167 93.172C61.5607 92.9373 61.182 92.82 60.6807 92.82C60.2807 92.82 59.87 92.892 59.4487 93.036C59.0274 93.18 58.6007 93.3933 58.1687 93.676L57.5687 92.1C58.038 91.7907 58.5607 91.5533 59.1367 91.388C59.7127 91.2173 60.294 91.132 60.8807 91.132C61.9794 91.132 62.8007 91.3933 63.3447 91.916C63.8887 92.4333 64.1607 93.2067 64.1607 94.236V99.5H62.2087V98.844C61.9314 99.1213 61.6007 99.332 61.2167 99.476C60.838 99.62 60.422 99.692 59.9687 99.692ZM60.4327 98.004C60.7634 98.004 61.0807 97.94 61.3847 97.812C61.694 97.6787 61.9687 97.492 62.2087 97.252V96.284C61.9794 96.172 61.7234 96.0867 61.4407 96.028C61.1634 95.964 60.886 95.932 60.6087 95.932C60.1127 95.932 59.7207 96.028 59.4327 96.22C59.15 96.4067 59.0087 96.668 59.0087 97.004C59.0087 97.3187 59.134 97.564 59.3847 97.74C59.6354 97.916 59.9847 98.004 60.4327 98.004ZM69.1309 99.692C68.4909 99.692 67.8776 99.556 67.2909 99.284C66.7096 99.012 66.2483 98.6467 65.9069 98.188L67.2189 97.084C67.4909 97.372 67.8056 97.6013 68.1629 97.772C68.5203 97.9373 68.8616 98.02 69.1869 98.02C69.5923 98.02 69.9043 97.9533 70.1229 97.82C70.3416 97.6813 70.4509 97.4893 70.4509 97.244C70.4509 97.084 70.3976 96.9427 70.2909 96.82C70.1896 96.692 70.0083 96.564 69.7469 96.436C69.4856 96.3027 69.1176 96.1507 68.6429 95.98C67.7256 95.644 67.0749 95.2813 66.6909 94.892C66.3069 94.4973 66.1149 93.9987 66.1149 93.396C66.1149 92.724 66.3869 92.18 66.9309 91.764C67.4749 91.3427 68.1843 91.132 69.0589 91.132C69.6563 91.132 70.2056 91.244 70.7069 91.468C71.2136 91.692 71.6483 92.02 72.0109 92.452L70.7069 93.532C70.2269 93.0467 69.6669 92.804 69.0269 92.804C68.7016 92.804 68.4403 92.8653 68.2429 92.988C68.0456 93.1053 67.9469 93.2653 67.9469 93.468C67.9469 93.6653 68.0616 93.8413 68.2909 93.996C68.5256 94.1507 68.9603 94.332 69.5949 94.54C70.2243 94.7373 70.7336 94.9613 71.1229 95.212C71.5176 95.4627 71.8056 95.7533 71.9869 96.084C72.1736 96.4147 72.2669 96.796 72.2669 97.228C72.2669 97.996 71.9869 98.5987 71.4269 99.036C70.8723 99.4733 70.1069 99.692 69.1309 99.692ZM77.5613 99.692C76.7773 99.692 76.1 99.516 75.5293 99.164C74.964 98.812 74.5266 98.316 74.2173 97.676C73.9133 97.0307 73.7613 96.2733 73.7613 95.404C73.7613 94.524 73.916 93.764 74.2253 93.124C74.54 92.484 74.98 91.9933 75.5453 91.652C76.116 91.3053 76.788 91.132 77.5613 91.132C78.2226 91.132 78.8226 91.2707 79.3613 91.548C79.9 91.8253 80.3293 92.252 80.6493 92.828C80.9693 93.3987 81.1293 94.1267 81.1293 95.012C81.1293 95.1507 81.124 95.3213 81.1133 95.524C81.108 95.7213 81.0946 95.9213 81.0733 96.124H75.7373C75.7586 96.4973 75.844 96.8253 75.9933 97.108C76.148 97.3853 76.3586 97.6013 76.6253 97.756C76.892 97.9107 77.2066 97.988 77.5693 97.988C77.9586 97.988 78.2973 97.924 78.5853 97.796C78.8733 97.6627 79.1453 97.452 79.4013 97.164L80.5533 98.356C80.2013 98.756 79.7773 99.0787 79.2813 99.324C78.7853 99.5693 78.212 99.692 77.5613 99.692ZM75.7453 94.564H79.1933C79.1666 94.2067 79.0866 93.9 78.9533 93.644C78.82 93.3827 78.6333 93.1827 78.3933 93.044C78.1533 92.9053 77.8626 92.836 77.5213 92.836C77.052 92.836 76.652 92.98 76.3213 93.268C75.9906 93.556 75.7986 93.988 75.7453 94.564Z" fill="black"/>
</svg>
