<svg width="100" height="105" viewBox="0 0 100 105" fill="none" xmlns="http://www.w3.org/2000/svg">
<path d="M86.1028 34.6966L53.3089 1.90701C51.4326 0.030995 48.3327 0.030995 46.4564 1.90701L39.6855 8.677L48.3327 17.323C50.3721 16.6705 52.6563 17.0783 54.2062 18.7096C55.8378 20.3409 56.2457 22.6248 55.593 24.6639L63.9139 32.9837C65.9533 32.3312 68.2375 32.739 69.869 34.3703C72.1532 36.5726 72.1532 40.2431 69.869 42.5269C67.5849 44.8108 63.9955 44.8108 61.7113 42.5269C59.9982 40.814 59.5903 38.3671 60.4877 36.2463L52.7379 28.4976V48.8891C53.3089 49.1338 53.7984 49.5416 54.2878 49.9494C56.572 52.1517 56.572 55.8222 54.2878 58.106C52.0037 60.3083 48.4143 60.3083 46.1301 58.106C43.846 55.8222 43.846 52.2333 46.1301 49.9494C46.7012 49.3785 47.3538 48.9706 48.0064 48.7259V28.0897C47.3538 27.845 46.7012 27.3556 46.1301 26.8662C44.417 25.1533 44.0091 22.7064 44.9065 20.5856L36.3409 12.1028L13.9072 34.5334C12.0309 36.4095 12.0309 39.509 13.9072 41.385L46.6196 74.093C48.4958 75.969 51.5958 75.969 53.472 74.093L86.0213 41.5481C87.9791 39.5905 87.9791 36.5726 86.1028 34.6966Z" fill="black"/>
<path d="M44.9166 99.692C44.058 99.692 43.3193 99.532 42.7006 99.212C42.082 98.8867 41.578 98.4493 41.1886 97.9C40.7993 97.3453 40.5086 96.724 40.3166 96.036C40.13 95.3427 40.0366 94.6307 40.0366 93.9C40.0366 93.2013 40.1326 92.5107 40.3246 91.828C40.522 91.1453 40.818 90.524 41.2126 89.964C41.6126 89.404 42.1193 88.956 42.7326 88.62C43.346 88.2787 44.074 88.108 44.9166 88.108C45.6313 88.108 46.234 88.22 46.7246 88.444C47.2206 88.668 47.6366 88.9613 47.9726 89.324C48.314 89.6813 48.61 90.06 48.8606 90.46L47.0366 91.5C46.7913 91.1213 46.5006 90.7907 46.1646 90.508C45.834 90.2253 45.418 90.084 44.9166 90.084C44.394 90.084 43.9566 90.2013 43.6046 90.436C43.258 90.6707 42.9806 90.9773 42.7726 91.356C42.5646 91.7347 42.4153 92.148 42.3246 92.596C42.234 93.0387 42.1886 93.4733 42.1886 93.9C42.1886 94.3853 42.2393 94.8547 42.3406 95.308C42.442 95.7613 42.602 96.1693 42.8206 96.532C43.0393 96.8947 43.322 97.1827 43.6686 97.396C44.0153 97.604 44.4313 97.708 44.9166 97.708C45.2846 97.708 45.618 97.6253 45.9166 97.46C46.2206 97.2947 46.4606 97.0733 46.6366 96.796C46.8126 96.5133 46.9006 96.196 46.9006 95.844V95.636H44.9966V93.676H49.0366V95.292C49.0366 96.2413 48.8526 97.044 48.4846 97.7C48.122 98.3507 47.6286 98.8467 47.0046 99.188C46.386 99.524 45.69 99.692 44.9166 99.692ZM51.3109 99.5V91.324H53.3109V99.5H51.3109ZM52.3109 90.3C51.9909 90.3 51.7135 90.1853 51.4789 89.956C51.2495 89.7213 51.1349 89.444 51.1349 89.124C51.1349 88.804 51.2495 88.532 51.4789 88.308C51.7082 88.0787 51.9855 87.964 52.3109 87.964C52.6469 87.964 52.9269 88.076 53.1509 88.3C53.3749 88.524 53.4869 88.7987 53.4869 89.124C53.4869 89.4493 53.3722 89.7267 53.1429 89.956C52.9189 90.1853 52.6415 90.3 52.3109 90.3ZM58.2101 99.692C57.5595 99.692 57.0715 99.5133 56.7461 99.156C56.4208 98.7987 56.2581 98.2653 56.2581 97.556V93.076H55.0661V91.324H56.2581V88.9L58.2421 87.948V91.324H60.0981V93.076H58.2421V97.196C58.2421 97.452 58.2928 97.6413 58.3941 97.764C58.5008 97.8867 58.6661 97.948 58.8901 97.948C59.2848 97.948 59.7168 97.8253 60.1861 97.58L59.9541 99.324C59.7088 99.4467 59.4421 99.5373 59.1541 99.596C58.8661 99.66 58.5515 99.692 58.2101 99.692Z" fill="black"/>
</svg>
