<svg width="100" height="124" viewBox="0 0 100 124" fill="none" xmlns="http://www.w3.org/2000/svg">
<path d="M22.375 12.75V63.375C16.25 56.625 12.5 47.75 12.5 38C12.5 28.25 16.25 19.375 22.375 12.75Z" fill="black"/>
<path d="M26.375 18.25L48 61.625H26.375V18.25Z" fill="black"/>
<path d="M50 56.75L28.75 14.375H71.25L50 56.75Z" fill="black"/>
<path d="M50 0.5C59.75 0.5 68.625 4.25 75.25 10.375H24.75C31.375 4.25 40.25 0.5 50 0.5Z" fill="black"/>
<path d="M73.625 61.625H52L73.625 18.25V61.625Z" fill="black"/>
<path d="M75.25 65.625C68.625 71.75 59.75 75.5 50 75.5C40.25 75.5 31.375 71.75 24.75 65.625H75.25Z" fill="black"/>
<path d="M77.625 63.25V12.75C83.75 19.375 87.5 28.25 87.5 38C87.5 47.75 83.75 56.625 77.625 63.25Z" fill="black"/>
<path d="M26.375 18.25L48 61.625H26.375V18.25Z" fill="black"/>
<path d="M50 56.75L28.75 14.375H71.25L50 56.75Z" fill="black"/>
<path d="M52 61.625L73.625 18.25V61.625H52Z" fill="black"/>
<path d="M28.75 14.375H71.25L50 56.75L28.75 14.375Z" fill="black"/>
<path d="M25.7456 99.692L22.8816 93.452C22.8443 93.372 22.8043 93.2787 22.7616 93.172C22.719 93.0653 22.6816 92.9587 22.6496 92.852C22.655 92.9373 22.6576 93.0387 22.6576 93.156C22.663 93.2733 22.6656 93.3773 22.6656 93.468V99.5H20.5936V88.3H22.6656L25.5056 94.652C25.559 94.7693 25.607 94.8867 25.6496 95.004C25.6976 95.116 25.743 95.2333 25.7856 95.356C25.8283 95.2333 25.871 95.1133 25.9136 94.996C25.9563 94.8787 26.0016 94.764 26.0496 94.652L28.9456 88.3H30.8896V99.5H28.8176V93.452C28.8176 93.356 28.8176 93.2493 28.8176 93.132C28.823 93.0147 28.8256 92.9187 28.8256 92.844C28.7936 92.94 28.7536 93.044 28.7056 93.156C28.663 93.2627 28.6203 93.3613 28.5776 93.452L25.7456 99.692ZM35.8984 99.692C35.0077 99.692 34.301 99.452 33.7784 98.972C33.261 98.4867 33.0024 97.8307 33.0024 97.004C33.0024 96.4707 33.1357 96.004 33.4024 95.604C33.6744 95.1987 34.0504 94.8867 34.5304 94.668C35.0157 94.444 35.581 94.332 36.2264 94.332C36.5837 94.332 36.9277 94.3667 37.2584 94.436C37.5944 94.5 37.8877 94.5933 38.1384 94.716V94.204C38.1384 93.7453 38.0077 93.4013 37.7464 93.172C37.4904 92.9373 37.1117 92.82 36.6104 92.82C36.2104 92.82 35.7997 92.892 35.3784 93.036C34.957 93.18 34.5304 93.3933 34.0984 93.676L33.4984 92.1C33.9677 91.7907 34.4904 91.5533 35.0664 91.388C35.6424 91.2173 36.2237 91.132 36.8104 91.132C37.909 91.132 38.7304 91.3933 39.2744 91.916C39.8184 92.4333 40.0904 93.2067 40.0904 94.236V99.5H38.1384V98.844C37.861 99.1213 37.5304 99.332 37.1464 99.476C36.7677 99.62 36.3517 99.692 35.8984 99.692ZM36.3624 98.004C36.693 98.004 37.0104 97.94 37.3144 97.812C37.6237 97.6787 37.8984 97.492 38.1384 97.252V96.284C37.909 96.172 37.653 96.0867 37.3704 96.028C37.093 95.964 36.8157 95.932 36.5384 95.932C36.0424 95.932 35.6504 96.028 35.3624 96.22C35.0797 96.4067 34.9384 96.668 34.9384 97.004C34.9384 97.3187 35.0637 97.564 35.3144 97.74C35.565 97.916 35.9144 98.004 36.3624 98.004ZM44.5383 99.692C43.8876 99.692 43.3996 99.5133 43.0743 99.156C42.7489 98.7987 42.5863 98.2653 42.5863 97.556V93.076H41.3943V91.324H42.5863V88.9L44.5703 87.948V91.324H46.4263V93.076H44.5703V97.196C44.5703 97.452 44.6209 97.6413 44.7223 97.764C44.8289 97.8867 44.9943 97.948 45.2183 97.948C45.6129 97.948 46.0449 97.8253 46.5143 97.58L46.2823 99.324C46.0369 99.4467 45.7703 99.5373 45.4823 99.596C45.1943 99.66 44.8796 99.692 44.5383 99.692ZM51.7254 99.692C50.9414 99.692 50.264 99.516 49.6934 99.164C49.128 98.812 48.6907 98.316 48.3814 97.676C48.0774 97.0307 47.9254 96.2733 47.9254 95.404C47.9254 94.524 48.08 93.764 48.3894 93.124C48.704 92.484 49.144 91.9933 49.7094 91.652C50.28 91.3053 50.952 91.132 51.7254 91.132C52.3867 91.132 52.9867 91.2707 53.5254 91.548C54.064 91.8253 54.4934 92.252 54.8134 92.828C55.1334 93.3987 55.2934 94.1267 55.2934 95.012C55.2934 95.1507 55.288 95.3213 55.2774 95.524C55.272 95.7213 55.2587 95.9213 55.2374 96.124H49.9014C49.9227 96.4973 50.008 96.8253 50.1574 97.108C50.312 97.3853 50.5227 97.6013 50.7894 97.756C51.056 97.9107 51.3707 97.988 51.7334 97.988C52.1227 97.988 52.4614 97.924 52.7494 97.796C53.0374 97.6627 53.3094 97.452 53.5654 97.164L54.7174 98.356C54.3654 98.756 53.9414 99.0787 53.4454 99.324C52.9494 99.5693 52.376 99.692 51.7254 99.692ZM49.9094 94.564H53.3574C53.3307 94.2067 53.2507 93.9 53.1174 93.644C52.984 93.3827 52.7974 93.1827 52.5574 93.044C52.3174 92.9053 52.0267 92.836 51.6854 92.836C51.216 92.836 50.816 92.98 50.4854 93.268C50.1547 93.556 49.9627 93.988 49.9094 94.564ZM57.3105 99.5V91.324H59.3105V92.204C59.4598 91.8893 59.6945 91.6333 60.0145 91.436C60.3345 91.2333 60.6705 91.132 61.0225 91.132C61.6038 91.132 62.0945 91.332 62.4945 91.732L62.2145 93.564C61.9958 93.3827 61.7825 93.2547 61.5745 93.18C61.3665 93.1053 61.1372 93.068 60.8865 93.068C60.5558 93.068 60.2732 93.1453 60.0385 93.3C59.8038 93.4547 59.6225 93.6787 59.4945 93.972C59.3718 94.2653 59.3105 94.6173 59.3105 95.028V99.5H57.3105ZM63.9046 99.5V91.324H65.9046V99.5H63.9046ZM64.9046 90.3C64.5846 90.3 64.3073 90.1853 64.0726 89.956C63.8433 89.7213 63.7286 89.444 63.7286 89.124C63.7286 88.804 63.8433 88.532 64.0726 88.308C64.302 88.0787 64.5793 87.964 64.9046 87.964C65.2406 87.964 65.5206 88.076 65.7446 88.3C65.9686 88.524 66.0806 88.7987 66.0806 89.124C66.0806 89.4493 65.966 89.7267 65.7366 89.956C65.5126 90.1853 65.2353 90.3 64.9046 90.3ZM70.8359 99.692C69.9452 99.692 69.2385 99.452 68.7159 98.972C68.1985 98.4867 67.9399 97.8307 67.9399 97.004C67.9399 96.4707 68.0732 96.004 68.3399 95.604C68.6119 95.1987 68.9879 94.8867 69.4679 94.668C69.9532 94.444 70.5185 94.332 71.1639 94.332C71.5212 94.332 71.8652 94.3667 72.1959 94.436C72.5319 94.5 72.8252 94.5933 73.0759 94.716V94.204C73.0759 93.7453 72.9452 93.4013 72.6839 93.172C72.4279 92.9373 72.0492 92.82 71.5479 92.82C71.1479 92.82 70.7372 92.892 70.3159 93.036C69.8945 93.18 69.4679 93.3933 69.0359 93.676L68.4359 92.1C68.9052 91.7907 69.4279 91.5533 70.0039 91.388C70.5799 91.2173 71.1612 91.132 71.7479 91.132C72.8465 91.132 73.6679 91.3933 74.2119 91.916C74.7559 92.4333 75.0279 93.2067 75.0279 94.236V99.5H73.0759V98.844C72.7985 99.1213 72.4679 99.332 72.0839 99.476C71.7052 99.62 71.2892 99.692 70.8359 99.692ZM71.2999 98.004C71.6305 98.004 71.9479 97.94 72.2519 97.812C72.5612 97.6787 72.8359 97.492 73.0759 97.252V96.284C72.8465 96.172 72.5905 96.0867 72.3079 96.028C72.0305 95.964 71.7532 95.932 71.4759 95.932C70.9799 95.932 70.5879 96.028 70.2999 96.22C70.0172 96.4067 69.8759 96.668 69.8759 97.004C69.8759 97.3187 70.0012 97.564 70.2519 97.74C70.5025 97.916 70.8519 98.004 71.2999 98.004ZM77.4061 99.5V88.852L79.4061 87.948V99.5H77.4061ZM25.8202 118.5V107.3H29.5962C30.5669 107.3 31.3935 107.46 32.0762 107.78C32.7589 108.095 33.3109 108.521 33.7322 109.06C34.1589 109.593 34.4682 110.193 34.6602 110.86C34.8575 111.521 34.9562 112.201 34.9562 112.9C34.9562 113.54 34.8629 114.188 34.6762 114.844C34.4949 115.5 34.1962 116.105 33.7802 116.66C33.3642 117.209 32.8069 117.655 32.1082 117.996C31.4149 118.332 30.5562 118.5 29.5322 118.5H25.8202ZM27.8922 116.532H29.7482C30.3189 116.532 30.7989 116.425 31.1882 116.212C31.5775 115.993 31.8895 115.708 32.1242 115.356C32.3642 114.999 32.5375 114.607 32.6442 114.18C32.7562 113.748 32.8122 113.321 32.8122 112.9C32.8122 112.452 32.7562 112.012 32.6442 111.58C32.5322 111.148 32.3589 110.756 32.1242 110.404C31.8895 110.052 31.5909 109.772 31.2282 109.564C30.8655 109.356 30.4309 109.252 29.9242 109.252H27.8922V116.532ZM40.2332 118.692C39.4492 118.692 38.7719 118.516 38.2012 118.164C37.6359 117.812 37.1985 117.316 36.8892 116.676C36.5852 116.031 36.4332 115.273 36.4332 114.404C36.4332 113.524 36.5879 112.764 36.8972 112.124C37.2119 111.484 37.6519 110.993 38.2172 110.652C38.7879 110.305 39.4599 110.132 40.2332 110.132C40.8945 110.132 41.4945 110.271 42.0332 110.548C42.5719 110.825 43.0012 111.252 43.3212 111.828C43.6412 112.399 43.8012 113.127 43.8012 114.012C43.8012 114.151 43.7959 114.321 43.7852 114.524C43.7799 114.721 43.7665 114.921 43.7452 115.124H38.4092C38.4305 115.497 38.5159 115.825 38.6652 116.108C38.8199 116.385 39.0305 116.601 39.2972 116.756C39.5639 116.911 39.8785 116.988 40.2412 116.988C40.6305 116.988 40.9692 116.924 41.2572 116.796C41.5452 116.663 41.8172 116.452 42.0732 116.164L43.2252 117.356C42.8732 117.756 42.4492 118.079 41.9532 118.324C41.4572 118.569 40.8839 118.692 40.2332 118.692ZM38.4172 113.564H41.8652C41.8385 113.207 41.7585 112.9 41.6252 112.644C41.4919 112.383 41.3052 112.183 41.0652 112.044C40.8252 111.905 40.5345 111.836 40.1932 111.836C39.7239 111.836 39.3239 111.98 38.9932 112.268C38.6625 112.556 38.4705 112.988 38.4172 113.564ZM48.3028 118.692C47.6628 118.692 47.0495 118.556 46.4628 118.284C45.8815 118.012 45.4201 117.647 45.0788 117.188L46.3908 116.084C46.6628 116.372 46.9775 116.601 47.3348 116.772C47.6921 116.937 48.0335 117.02 48.3588 117.02C48.7641 117.02 49.0761 116.953 49.2948 116.82C49.5135 116.681 49.6228 116.489 49.6228 116.244C49.6228 116.084 49.5695 115.943 49.4628 115.82C49.3615 115.692 49.1801 115.564 48.9188 115.436C48.6575 115.303 48.2895 115.151 47.8148 114.98C46.8975 114.644 46.2468 114.281 45.8628 113.892C45.4788 113.497 45.2868 112.999 45.2868 112.396C45.2868 111.724 45.5588 111.18 46.1028 110.764C46.6468 110.343 47.3561 110.132 48.2308 110.132C48.8281 110.132 49.3775 110.244 49.8788 110.468C50.3855 110.692 50.8201 111.02 51.1828 111.452L49.8788 112.532C49.3988 112.047 48.8388 111.804 48.1988 111.804C47.8735 111.804 47.6121 111.865 47.4148 111.988C47.2175 112.105 47.1188 112.265 47.1188 112.468C47.1188 112.665 47.2335 112.841 47.4628 112.996C47.6975 113.151 48.1321 113.332 48.7668 113.54C49.3961 113.737 49.9055 113.961 50.2948 114.212C50.6895 114.463 50.9775 114.753 51.1588 115.084C51.3455 115.415 51.4388 115.796 51.4388 116.228C51.4388 116.996 51.1588 117.599 50.5988 118.036C50.0441 118.473 49.2788 118.692 48.3028 118.692ZM53.5218 118.5V110.324H55.5218V118.5H53.5218ZM54.5218 109.3C54.2018 109.3 53.9245 109.185 53.6898 108.956C53.4605 108.721 53.3458 108.444 53.3458 108.124C53.3458 107.804 53.4605 107.532 53.6898 107.308C53.9191 107.079 54.1965 106.964 54.5218 106.964C54.8578 106.964 55.1378 107.076 55.3618 107.3C55.5858 107.524 55.6978 107.799 55.6978 108.124C55.6978 108.449 55.5831 108.727 55.3538 108.956C55.1298 109.185 54.8525 109.3 54.5218 109.3ZM60.9251 121.908L59.8211 120.236C60.5997 120.177 61.2024 120.089 61.6291 119.972C62.0611 119.855 62.3624 119.687 62.5331 119.468C62.7037 119.249 62.7891 118.964 62.7891 118.612V118.02C62.3731 118.468 61.7864 118.692 61.0291 118.692C60.3197 118.692 59.7091 118.521 59.1971 118.18C58.6851 117.833 58.2904 117.34 58.0131 116.7C57.7411 116.055 57.6051 115.289 57.6051 114.404C57.6051 113.54 57.7464 112.788 58.0291 112.148C58.3171 111.508 58.7171 111.012 59.2291 110.66C59.7464 110.308 60.3517 110.132 61.0451 110.132C61.4077 110.132 61.7384 110.188 62.0371 110.3C62.3411 110.412 62.5917 110.575 62.7891 110.788V110.324H64.7811V117.764C64.7811 118.489 64.7144 119.103 64.5811 119.604C64.4477 120.105 64.2291 120.516 63.9251 120.836C63.6264 121.156 63.2317 121.399 62.7411 121.564C62.2504 121.735 61.6451 121.849 60.9251 121.908ZM61.3571 116.78C61.6397 116.78 61.9037 116.716 62.1491 116.588C62.3997 116.455 62.6131 116.276 62.7891 116.052V112.756C62.6397 112.548 62.4344 112.377 62.1731 112.244C61.9117 112.105 61.6477 112.036 61.3811 112.036C60.8051 112.036 60.3651 112.239 60.0611 112.644C59.7624 113.044 59.6131 113.631 59.6131 114.404C59.6131 114.905 59.6797 115.335 59.8131 115.692C59.9517 116.044 60.1517 116.313 60.4131 116.5C60.6744 116.687 60.9891 116.78 61.3571 116.78ZM67.2871 118.5V110.324H69.2871V111.108C69.5484 110.783 69.8604 110.54 70.2231 110.38C70.5911 110.215 71.0097 110.132 71.4791 110.132C72.3911 110.132 73.0951 110.415 73.5911 110.98C74.0871 111.54 74.3351 112.348 74.3351 113.404V118.5H72.3431V114.02C72.3431 113.332 72.2231 112.831 71.9831 112.516C71.7484 112.196 71.3804 112.036 70.8791 112.036C70.3351 112.036 69.9324 112.196 69.6711 112.516C69.4151 112.831 69.2871 113.321 69.2871 113.988V118.5H67.2871Z" fill="black"/>
</svg>
