<svg width="100" height="105" viewBox="0 0 100 105" fill="none" xmlns="http://www.w3.org/2000/svg">
<path fill-rule="evenodd" clip-rule="evenodd" d="M88.3013 20.2049L81.2114 30.1354L74.1215 20.2049H77.9871C77.6924 12.8264 71.6079 6.92361 64.1713 6.92361C57.8961 6.92361 52.5743 11.1424 50.8929 16.8889C48.8474 16.2292 46.7325 15.8125 44.583 15.6215C44.8257 14.7014 45.1377 13.7812 45.5191 12.8958C46.5418 10.4826 47.998 8.3125 49.8528 6.45486C51.7076 4.59722 53.8744 3.12153 56.284 2.11458C58.7802 1.03819 61.4324 0.5 64.1713 0.5C66.9102 0.5 69.5624 1.03819 72.0586 2.09722C74.4682 3.12153 76.635 4.57986 78.4898 6.4375C80.3447 8.29514 81.8008 10.4653 82.8235 12.8785C83.8116 15.2049 84.349 17.6701 84.401 20.2049H88.3013Z" fill="black"/>
<path fill-rule="evenodd" clip-rule="evenodd" d="M78.3859 75.5001V71.2293H53.9438C54.1172 71.1425 54.2905 71.073 54.4639 70.9862C57.1161 69.7189 59.5603 68.0696 61.7445 66.0557C62.0392 65.7779 62.3165 65.5175 62.5766 65.2571C62.8713 64.9619 63.1833 64.6494 63.478 64.3196C63.8247 63.9376 64.1714 63.5383 64.4834 63.139H78.3859V58.8682L90.0002 67.1841L78.3859 75.5001Z" fill="black"/>
<path fill-rule="evenodd" clip-rule="evenodd" d="M69.3716 44.6495C69.3716 48.3474 68.6435 51.9412 67.2221 55.3266C66.0087 58.2085 64.3099 60.8474 62.195 63.1565C61.9177 63.4516 61.6403 63.7467 61.3629 64.0419C61.1029 64.3023 60.8429 64.5454 60.5829 64.8058C58.5374 66.6981 56.2492 68.2433 53.753 69.4412C53.4063 69.6148 53.0422 69.7711 52.6782 69.9273C52.6609 69.9273 52.6609 69.9447 52.6435 69.9447C50.5634 70.8301 48.3272 71.2641 46.0563 71.2641H10V63.1912H43.4735C53.597 63.1912 61.9003 55.0836 62.039 44.9447C62.039 44.8579 62.039 44.7711 62.039 44.6842C62.039 33.6079 53.0596 24.6148 42 24.6148C30.9404 24.5801 21.961 33.5558 21.961 44.6495H26.6067L18.3034 56.2815L10 44.6495H14.6457C14.6457 40.9516 15.3738 37.3579 16.7952 33.9724C18.182 30.7086 20.1408 27.7745 22.6544 25.2572C25.1679 22.7398 28.0975 20.7606 31.3564 19.3891C34.7367 17.9655 38.325 17.2363 42.0173 17.2363C42.7627 17.2363 43.4908 17.2711 44.2188 17.3231C46.3684 17.4967 48.4659 17.9134 50.5114 18.5905C51.2394 18.8335 51.9502 19.094 52.6609 19.4065C55.9198 20.7954 58.8494 22.7572 61.3629 25.2745C63.8765 27.7919 65.8526 30.7259 67.2221 33.9898C68.6435 37.3579 69.3716 40.9516 69.3716 44.6495Z" fill="black"/>
<path d="M30.8354 99.692C30.1367 99.692 29.502 99.5693 28.9314 99.324C28.3607 99.0787 27.87 98.732 27.4594 98.284C27.054 97.8307 26.75 97.2973 26.5474 96.684L28.4274 95.988C28.6674 96.5 29.0007 96.9213 29.4274 97.252C29.8594 97.5773 30.3447 97.74 30.8834 97.74C31.454 97.74 31.9074 97.62 32.2434 97.38C32.5847 97.14 32.7554 96.7907 32.7554 96.332C32.7554 96.0173 32.654 95.756 32.4514 95.548C32.254 95.3347 31.9847 95.1533 31.6434 95.004C31.3074 94.8493 30.926 94.7 30.4994 94.556C30.0887 94.4173 29.6754 94.2627 29.2594 94.092C28.8434 93.9213 28.462 93.7133 28.1154 93.468C27.7687 93.2173 27.4887 92.9027 27.2754 92.524C27.0674 92.1453 26.9634 91.6813 26.9634 91.132C26.9634 90.5827 27.11 90.0787 27.4034 89.62C27.6967 89.1613 28.1207 88.796 28.6754 88.524C29.2354 88.2467 29.9127 88.108 30.7074 88.108C31.358 88.108 31.934 88.22 32.4354 88.444C32.942 88.6627 33.3607 88.9613 33.6914 89.34C34.022 89.7187 34.2514 90.148 34.3794 90.628L32.5234 91.244C32.374 90.908 32.1447 90.628 31.8354 90.404C31.5314 90.1747 31.118 90.06 30.5954 90.06C30.1047 90.06 29.7234 90.156 29.4514 90.348C29.1794 90.54 29.0434 90.812 29.0434 91.164C29.0434 91.404 29.134 91.6093 29.3154 91.78C29.502 91.9453 29.75 92.0947 30.0594 92.228C30.374 92.3613 30.7287 92.4973 31.1234 92.636C31.566 92.7853 32.006 92.956 32.4434 93.148C32.886 93.3347 33.286 93.564 33.6434 93.836C34.006 94.108 34.2967 94.4467 34.5154 94.852C34.734 95.252 34.8434 95.7427 34.8434 96.324C34.8434 97.0387 34.6647 97.6467 34.3074 98.148C33.9554 98.6493 33.478 99.0333 32.8754 99.3C32.2727 99.5613 31.5927 99.692 30.8354 99.692ZM39.8786 99.692C39.1266 99.692 38.476 99.5187 37.9266 99.172C37.3773 98.8253 36.9533 98.3347 36.6546 97.7C36.356 97.06 36.2066 96.3 36.2066 95.42C36.2066 94.54 36.356 93.78 36.6546 93.14C36.9586 92.5 37.388 92.0067 37.9426 91.66C38.4973 91.308 39.1506 91.132 39.9026 91.132C40.7506 91.132 41.4546 91.3293 42.0146 91.724C42.58 92.1133 42.988 92.692 43.2386 93.46L41.3426 94.1C41.2146 93.7587 41.028 93.4973 40.7826 93.316C40.5373 93.1293 40.2546 93.036 39.9346 93.036C39.4173 93.036 39.004 93.2493 38.6946 93.676C38.3906 94.1027 38.2386 94.684 38.2386 95.42C38.2386 96.1453 38.388 96.7213 38.6866 97.148C38.9853 97.5747 39.388 97.788 39.8946 97.788C40.252 97.788 40.556 97.6867 40.8066 97.484C41.0626 97.2813 41.252 96.9853 41.3746 96.596L43.2626 97.164C43.0226 98.0013 42.6146 98.6333 42.0386 99.06C41.468 99.4813 40.748 99.692 39.8786 99.692ZM45.2168 99.5V91.324H47.2168V92.204C47.3661 91.8893 47.6008 91.6333 47.9208 91.436C48.2408 91.2333 48.5768 91.132 48.9288 91.132C49.5101 91.132 50.0008 91.332 50.4008 91.732L50.1208 93.564C49.9021 93.3827 49.6888 93.2547 49.4808 93.18C49.2728 93.1053 49.0434 93.068 48.7928 93.068C48.4621 93.068 48.1794 93.1453 47.9448 93.3C47.7101 93.4547 47.5288 93.6787 47.4008 93.972C47.2781 94.2653 47.2168 94.6173 47.2168 95.028V99.5H45.2168ZM54.6806 99.692C53.7686 99.692 53.062 99.4093 52.5606 98.844C52.0593 98.2733 51.8086 97.468 51.8086 96.428V91.324H53.8086V95.804C53.8086 96.492 53.926 96.9933 54.1606 97.308C54.3953 97.6227 54.766 97.78 55.2726 97.78C55.8166 97.78 56.2166 97.6227 56.4726 97.308C56.734 96.988 56.8646 96.4973 56.8646 95.836V91.324H58.8566V99.5H56.8646V98.732C56.614 99.052 56.3046 99.292 55.9366 99.452C55.574 99.612 55.1553 99.692 54.6806 99.692ZM61.373 99.5V91.324H63.373V92.084C63.6343 91.7533 63.9277 91.5133 64.253 91.364C64.5837 91.2093 64.957 91.132 65.373 91.132C65.8583 91.132 66.2743 91.2307 66.621 91.428C66.9677 91.6253 67.237 91.9133 67.429 92.292C67.701 91.9187 68.0503 91.6333 68.477 91.436C68.9037 91.2333 69.3863 91.132 69.925 91.132C70.9277 91.132 71.685 91.4013 72.197 91.94C72.709 92.4787 72.965 93.2787 72.965 94.34V99.5H70.973V95.028C70.973 94.3453 70.861 93.844 70.637 93.524C70.413 93.1987 70.0663 93.036 69.597 93.036C69.277 93.036 69.0103 93.108 68.797 93.252C68.589 93.396 68.4317 93.6147 68.325 93.908C68.2183 94.196 68.165 94.5613 68.165 95.004V99.5H66.173V95.028C66.173 94.34 66.0637 93.836 65.845 93.516C65.6263 93.196 65.2797 93.036 64.805 93.036C64.3197 93.036 63.9597 93.1933 63.725 93.508C63.4903 93.8227 63.373 94.3107 63.373 94.972V99.5H61.373Z" fill="black"/>
</svg>
