<svg width="100" height="104" viewBox="0 0 100 104" fill="none" xmlns="http://www.w3.org/2000/svg">
<path d="M12.5 0C37.5169 0 62.4831 0 87.5 0C87.5 25.0169 87.5 50.0338 87.5 75C62.5338 75 37.5169 75 12.5 75C12.5 49.9325 12.5 24.9662 12.5 0ZM79.5999 39.7029C78.0807 36.9683 76.0044 35.0945 73.0165 34.4362C70.8896 33.9298 68.7627 33.9298 66.6357 34.3856C59.7485 35.8035 56.8113 44.1087 61.2677 49.6286C62.8376 51.553 64.9139 52.7178 67.0915 53.7306C69.0159 54.6421 70.9909 55.503 72.9153 56.4652C74.2319 57.1236 74.789 58.339 74.6371 59.8076C74.4851 61.2762 73.4723 62.0864 72.2063 62.5422C69.3704 63.555 66.0787 62.6435 64.1543 60.2633C63.7492 59.7569 63.344 59.1999 62.9389 58.6428C61.0145 59.7569 59.1408 60.8204 57.267 61.9345C58.4318 64.2134 60.0523 66.0365 62.2806 67.2519C66.0787 69.3282 70.0793 69.632 74.1813 68.6192C76.8653 67.9608 79.1442 66.5935 80.5621 64.1121C83.1955 59.4024 81.6762 53.528 77.0172 50.6415C74.9409 49.3754 72.6114 48.5145 70.4338 47.4004C69.3704 46.8433 68.2562 46.3369 67.3447 45.628C65.7242 44.3113 66.028 41.6779 67.8511 40.6651C69.6236 39.6523 72.105 40.26 73.4723 42.0324C73.7762 42.3869 73.9787 42.792 74.2826 43.1972C76.0044 42.0324 77.7768 40.8677 79.5999 39.7029ZM32.2502 62.6941C33.263 64.8717 34.7316 66.5935 36.8079 67.7076C39.4919 69.1762 42.4291 69.4294 45.417 68.9737C48.1009 68.5685 50.3292 67.3531 51.7978 64.9223C53.0132 62.8967 53.3677 60.6685 53.3677 58.2883C53.3677 50.5908 53.3677 42.8933 53.3677 35.1958C53.3677 34.9932 53.3677 34.74 53.3677 34.4868C50.9875 34.4868 48.7086 34.4868 46.3285 34.4868C46.3285 34.7907 46.3285 35.0439 46.3285 35.3477C46.3285 42.944 46.3285 50.4895 46.3285 58.0858C46.3285 58.7947 46.2779 59.5544 46.1766 60.2633C45.974 61.4281 45.3663 62.289 44.2016 62.6435C42.024 63.3018 40.2515 62.6435 38.9855 60.7698C38.6816 60.2633 38.3778 59.7569 38.0233 59.2505C36.0483 60.4153 34.1745 61.5294 32.2502 62.6941Z" fill="black"/>
<path d="M10.0677 99.192C9.26769 99.192 8.54769 98.976 7.90769 98.544C7.26769 98.112 6.77702 97.512 6.43569 96.744L8.22769 95.904C8.45169 96.3147 8.70502 96.6347 8.98769 96.864C9.27035 97.088 9.63302 97.2 10.0757 97.2C10.2944 97.2 10.5024 97.168 10.6997 97.104C10.897 97.04 11.0757 96.9307 11.2357 96.776C11.401 96.6213 11.529 96.4053 11.6197 96.128C11.7157 95.8453 11.7637 95.4853 11.7637 95.048V87.8H13.8437V95.136C13.8437 95.9307 13.729 96.592 13.4997 97.12C13.2704 97.6427 12.9664 98.056 12.5877 98.36C12.2144 98.6587 11.8064 98.872 11.3637 99C10.9264 99.128 10.4944 99.192 10.0677 99.192ZM18.7656 99.192C17.8749 99.192 17.1682 98.952 16.6456 98.472C16.1282 97.9867 15.8696 97.3307 15.8696 96.504C15.8696 95.9707 16.0029 95.504 16.2696 95.104C16.5416 94.6987 16.9176 94.3867 17.3976 94.168C17.8829 93.944 18.4482 93.832 19.0936 93.832C19.4509 93.832 19.7949 93.8667 20.1256 93.936C20.4616 94 20.7549 94.0933 21.0056 94.216V93.704C21.0056 93.2453 20.8749 92.9013 20.6136 92.672C20.3576 92.4373 19.9789 92.32 19.4776 92.32C19.0776 92.32 18.6669 92.392 18.2456 92.536C17.8242 92.68 17.3976 92.8933 16.9656 93.176L16.3656 91.6C16.8349 91.2907 17.3576 91.0533 17.9336 90.888C18.5096 90.7173 19.0909 90.632 19.6776 90.632C20.7762 90.632 21.5976 90.8933 22.1416 91.416C22.6856 91.9333 22.9576 92.7067 22.9576 93.736V99H21.0056V98.344C20.7282 98.6213 20.3976 98.832 20.0136 98.976C19.6349 99.12 19.2189 99.192 18.7656 99.192ZM19.2296 97.504C19.5602 97.504 19.8776 97.44 20.1816 97.312C20.4909 97.1787 20.7656 96.992 21.0056 96.752V95.784C20.7762 95.672 20.5202 95.5867 20.2376 95.528C19.9602 95.464 19.6829 95.432 19.4056 95.432C18.9096 95.432 18.5176 95.528 18.2296 95.72C17.9469 95.9067 17.8056 96.168 17.8056 96.504C17.8056 96.8187 17.9309 97.064 18.1816 97.24C18.4322 97.416 18.7816 97.504 19.2296 97.504ZM27.3228 99L24.3308 90.824H26.4028L28.1148 95.688C28.1628 95.8053 28.2055 95.9307 28.2428 96.064C28.2801 96.1973 28.3175 96.3307 28.3548 96.464C28.3921 96.3307 28.4295 96.1973 28.4668 96.064C28.5095 95.9307 28.5495 95.8053 28.5868 95.688L30.2908 90.824H32.3548L29.3628 99H27.3228ZM36.0937 99.192C35.203 99.192 34.4964 98.952 33.9737 98.472C33.4564 97.9867 33.1977 97.3307 33.1977 96.504C33.1977 95.9707 33.331 95.504 33.5977 95.104C33.8697 94.6987 34.2457 94.3867 34.7257 94.168C35.211 93.944 35.7764 93.832 36.4217 93.832C36.779 93.832 37.123 93.8667 37.4537 93.936C37.7897 94 38.083 94.0933 38.3337 94.216V93.704C38.3337 93.2453 38.203 92.9013 37.9417 92.672C37.6857 92.4373 37.307 92.32 36.8057 92.32C36.4057 92.32 35.995 92.392 35.5737 92.536C35.1524 92.68 34.7257 92.8933 34.2937 93.176L33.6937 91.6C34.163 91.2907 34.6857 91.0533 35.2617 90.888C35.8377 90.7173 36.419 90.632 37.0057 90.632C38.1044 90.632 38.9257 90.8933 39.4697 91.416C40.0137 91.9333 40.2857 92.7067 40.2857 93.736V99H38.3337V98.344C38.0564 98.6213 37.7257 98.832 37.3417 98.976C36.963 99.12 36.547 99.192 36.0937 99.192ZM36.5577 97.504C36.8884 97.504 37.2057 97.44 37.5097 97.312C37.819 97.1787 38.0937 96.992 38.3337 96.752V95.784C38.1044 95.672 37.8484 95.5867 37.5657 95.528C37.2884 95.464 37.011 95.432 36.7337 95.432C36.2377 95.432 35.8457 95.528 35.5577 95.72C35.275 95.9067 35.1337 96.168 35.1337 96.504C35.1337 96.8187 35.259 97.064 35.5097 97.24C35.7604 97.416 36.1097 97.504 36.5577 97.504ZM45.2559 99.192C44.6159 99.192 44.0026 99.056 43.4159 98.784C42.8346 98.512 42.3733 98.1467 42.0319 97.688L43.3439 96.584C43.6159 96.872 43.9306 97.1013 44.2879 97.272C44.6453 97.4373 44.9866 97.52 45.3119 97.52C45.7173 97.52 46.0293 97.4533 46.2479 97.32C46.4666 97.1813 46.5759 96.9893 46.5759 96.744C46.5759 96.584 46.5226 96.4427 46.4159 96.32C46.3146 96.192 46.1333 96.064 45.8719 95.936C45.6106 95.8027 45.2426 95.6507 44.7679 95.48C43.8506 95.144 43.1999 94.7813 42.8159 94.392C42.4319 93.9973 42.2399 93.4987 42.2399 92.896C42.2399 92.224 42.5119 91.68 43.0559 91.264C43.5999 90.8427 44.3093 90.632 45.1839 90.632C45.7813 90.632 46.3306 90.744 46.8319 90.968C47.3386 91.192 47.7733 91.52 48.1359 91.952L46.8319 93.032C46.3519 92.5467 45.7919 92.304 45.1519 92.304C44.8266 92.304 44.5653 92.3653 44.3679 92.488C44.1706 92.6053 44.0719 92.7653 44.0719 92.968C44.0719 93.1653 44.1866 93.3413 44.4159 93.496C44.6506 93.6507 45.0853 93.832 45.7199 94.04C46.3493 94.2373 46.8586 94.4613 47.2479 94.712C47.6426 94.9627 47.9306 95.2533 48.1119 95.584C48.2986 95.9147 48.3919 96.296 48.3919 96.728C48.3919 97.496 48.1119 98.0987 47.5519 98.536C46.9973 98.9733 46.2319 99.192 45.2559 99.192ZM54.1869 99.192C53.4883 99.192 52.8536 99.0693 52.2829 98.824C51.7123 98.5787 51.2216 98.232 50.8109 97.784C50.4056 97.3307 50.1016 96.7973 49.8989 96.184L51.7789 95.488C52.0189 96 52.3523 96.4213 52.7789 96.752C53.2109 97.0773 53.6963 97.24 54.2349 97.24C54.8056 97.24 55.2589 97.12 55.5949 96.88C55.9363 96.64 56.1069 96.2907 56.1069 95.832C56.1069 95.5173 56.0056 95.256 55.8029 95.048C55.6056 94.8347 55.3363 94.6533 54.9949 94.504C54.6589 94.3493 54.2776 94.2 53.8509 94.056C53.4403 93.9173 53.0269 93.7627 52.6109 93.592C52.1949 93.4213 51.8136 93.2133 51.4669 92.968C51.1203 92.7173 50.8403 92.4027 50.6269 92.024C50.4189 91.6453 50.3149 91.1813 50.3149 90.632C50.3149 90.0827 50.4616 89.5787 50.7549 89.12C51.0483 88.6613 51.4723 88.296 52.0269 88.024C52.5869 87.7467 53.2643 87.608 54.0589 87.608C54.7096 87.608 55.2856 87.72 55.7869 87.944C56.2936 88.1627 56.7123 88.4613 57.0429 88.84C57.3736 89.2187 57.6029 89.648 57.7309 90.128L55.8749 90.744C55.7256 90.408 55.4963 90.128 55.1869 89.904C54.8829 89.6747 54.4696 89.56 53.9469 89.56C53.4563 89.56 53.0749 89.656 52.8029 89.848C52.5309 90.04 52.3949 90.312 52.3949 90.664C52.3949 90.904 52.4856 91.1093 52.6669 91.28C52.8536 91.4453 53.1016 91.5947 53.4109 91.728C53.7256 91.8613 54.0803 91.9973 54.4749 92.136C54.9176 92.2853 55.3576 92.456 55.7949 92.648C56.2376 92.8347 56.6376 93.064 56.9949 93.336C57.3576 93.608 57.6483 93.9467 57.8669 94.352C58.0856 94.752 58.1949 95.2427 58.1949 95.824C58.1949 96.5387 58.0163 97.1467 57.6589 97.648C57.3069 98.1493 56.8296 98.5333 56.2269 98.8C55.6243 99.0613 54.9443 99.192 54.1869 99.192ZM63.2302 99.192C62.4782 99.192 61.8275 99.0187 61.2782 98.672C60.7289 98.3253 60.3049 97.8347 60.0062 97.2C59.7075 96.56 59.5582 95.8 59.5582 94.92C59.5582 94.04 59.7075 93.28 60.0062 92.64C60.3102 92 60.7395 91.5067 61.2942 91.16C61.8489 90.808 62.5022 90.632 63.2542 90.632C64.1022 90.632 64.8062 90.8293 65.3662 91.224C65.9315 91.6133 66.3395 92.192 66.5902 92.96L64.6942 93.6C64.5662 93.2587 64.3795 92.9973 64.1342 92.816C63.8889 92.6293 63.6062 92.536 63.2862 92.536C62.7689 92.536 62.3555 92.7493 62.0462 93.176C61.7422 93.6027 61.5902 94.184 61.5902 94.92C61.5902 95.6453 61.7395 96.2213 62.0382 96.648C62.3369 97.0747 62.7395 97.288 63.2462 97.288C63.6035 97.288 63.9075 97.1867 64.1582 96.984C64.4142 96.7813 64.6035 96.4853 64.7262 96.096L66.6142 96.664C66.3742 97.5013 65.9662 98.1333 65.3902 98.56C64.8195 98.9813 64.0995 99.192 63.2302 99.192ZM68.5683 99V90.824H70.5683V91.704C70.7176 91.3893 70.9523 91.1333 71.2723 90.936C71.5923 90.7333 71.9283 90.632 72.2803 90.632C72.8616 90.632 73.3523 90.832 73.7523 91.232L73.4723 93.064C73.2536 92.8827 73.0403 92.7547 72.8323 92.68C72.6243 92.6053 72.395 92.568 72.1443 92.568C71.8136 92.568 71.531 92.6453 71.2963 92.8C71.0616 92.9547 70.8803 93.1787 70.7523 93.472C70.6296 93.7653 70.5683 94.1173 70.5683 94.528V99H68.5683ZM75.1624 99V90.824H77.1624V99H75.1624ZM76.1624 89.8C75.8424 89.8 75.5651 89.6853 75.3304 89.456C75.1011 89.2213 74.9864 88.944 74.9864 88.624C74.9864 88.304 75.1011 88.032 75.3304 87.808C75.5598 87.5787 75.8371 87.464 76.1624 87.464C76.4984 87.464 76.7784 87.576 77.0024 87.8C77.2264 88.024 77.3384 88.2987 77.3384 88.624C77.3384 88.9493 77.2238 89.2267 76.9944 89.456C76.7704 89.6853 76.4931 89.8 76.1624 89.8ZM79.6777 102.248V90.824H81.6777V91.424C82.1257 90.896 82.7257 90.632 83.4777 90.632C84.1764 90.632 84.779 90.8053 85.2857 91.152C85.7924 91.4933 86.1817 91.984 86.4537 92.624C86.7257 93.264 86.8617 94.0267 86.8617 94.912C86.8617 95.7707 86.7204 96.5227 86.4377 97.168C86.155 97.808 85.7577 98.3067 85.2457 98.664C84.7337 99.016 84.1364 99.192 83.4537 99.192C83.0804 99.192 82.7444 99.1253 82.4457 98.992C82.147 98.8533 81.891 98.6507 81.6777 98.384V101.344L79.6777 102.248ZM83.1577 97.28C83.7017 97.28 84.1204 97.0747 84.4137 96.664C84.707 96.248 84.8537 95.664 84.8537 94.912C84.8537 94.16 84.7044 93.576 84.4057 93.16C84.107 92.744 83.691 92.536 83.1577 92.536C82.8324 92.536 82.547 92.5947 82.3017 92.712C82.0617 92.8293 81.8537 93.008 81.6777 93.248V96.552C81.8217 96.7813 82.0244 96.96 82.2857 97.088C82.5524 97.216 82.843 97.28 83.1577 97.28ZM91.1711 99.192C90.5204 99.192 90.0324 99.0133 89.7071 98.656C89.3817 98.2987 89.2191 97.7653 89.2191 97.056V92.576H88.0271V90.824H89.2191V88.4L91.2031 87.448V90.824H93.0591V92.576H91.2031V96.696C91.2031 96.952 91.2537 97.1413 91.3551 97.264C91.4617 97.3867 91.6271 97.448 91.8511 97.448C92.2457 97.448 92.6777 97.3253 93.1471 97.08L92.9151 98.824C92.6697 98.9467 92.4031 99.0373 92.1151 99.096C91.8271 99.16 91.5124 99.192 91.1711 99.192Z" fill="black"/>
</svg>
