<svg width="100" height="104" viewBox="0 0 100 104" fill="none" xmlns="http://www.w3.org/2000/svg">
<path d="M87.4317 5.96862C86.8855 3.10368 84.6666 0.784447 81.8332 0.170532C81.6966 0.136426 81.5601 0.136426 81.3894 0.102319C81.3553 0.102319 81.3211 0.0341064 81.287 0H18.6789C18.6447 0.0341064 18.6106 0.102319 18.5423 0.102319C15.7089 0.579809 13.3193 2.83083 12.6707 5.69577C12.6365 5.79809 12.5683 5.93452 12.5 6.07094V68.7926C12.5341 68.8608 12.6024 68.895 12.6024 68.9632C13.2852 72.101 15.1969 74.045 18.3034 74.8295C18.4058 74.8636 18.4741 74.9318 18.5423 75H81.3894C81.4577 74.9659 81.4918 74.8977 81.5601 74.8636C84.6666 74.1473 86.5783 72.2715 87.3634 69.1678C87.3976 69.0655 87.3634 68.9291 87.3976 68.8267C87.3976 68.7926 87.4659 68.7585 87.5 68.7244V6.17326C87.5 6.10505 87.4317 6.07094 87.4317 5.96862ZM56.0253 41.5757H55.6497C52.8163 41.5757 49.9488 41.5757 47.1154 41.5757C46.9788 41.5757 46.8423 41.5757 46.7057 41.5757C46.7057 41.6098 46.6716 41.6098 46.6716 41.6439C46.6716 41.7804 46.6716 41.9168 46.6716 42.0532V68.3493H39.1955V41.6098H29.8077V35.6412H55.9911V41.5757H56.0253ZM81.2187 59.4134C81.1504 60.573 80.9797 61.6985 80.5018 62.7899C80.3653 63.131 80.2629 63.4379 80.0922 63.779C79.4777 65.075 78.4536 65.9959 77.2588 66.7462C75.8933 67.5989 74.3912 68.0764 72.8209 68.3834C71.0799 68.7244 69.3389 68.8267 67.5637 68.7585C66.7103 68.7244 65.8569 68.7244 65.0034 68.6221C62.9893 68.3834 61.0093 67.94 59.1659 67.0532C59.0635 67.0191 58.9269 66.8486 58.9269 66.7462C58.9269 64.5293 58.9269 62.3124 58.9269 60.0955C58.9269 60.0614 58.9269 60.0273 58.9269 59.9591C59.4731 60.3342 60.0193 60.7094 60.5655 61.0164C61.8969 61.8008 63.3648 62.3465 64.8669 62.6876C66.1641 62.9945 67.4613 63.0287 68.7585 62.9604C69.7485 62.9263 70.7385 62.6876 71.6261 62.2442C72.4112 61.8349 73.0599 61.2892 73.2305 60.3684C73.4012 59.5498 73.333 58.7312 72.855 58.015C72.1723 56.9918 71.2164 56.3438 70.1582 55.7981C68.9634 55.2183 67.7686 54.7067 66.5396 54.161C64.7303 53.3424 62.9552 52.4557 61.4873 51.0914C60.2924 49.9659 59.4049 48.6357 58.9952 47.0327C58.7563 46.0778 58.688 45.1228 58.7221 44.1678C58.7563 41.8145 59.6097 39.8022 61.2824 38.131C62.6479 36.7667 64.3207 35.9482 66.1641 35.4707C67.4272 35.1637 68.6903 34.925 69.9875 34.8909C70.9092 34.8909 71.8309 34.7885 72.7185 34.8226C74.1181 34.8568 75.4836 34.925 76.8491 35.266C77.7367 35.5048 78.6584 35.7435 79.546 35.9482C79.7167 35.9823 79.7849 36.0846 79.7849 36.2892C79.7849 38.4038 79.7849 40.5525 79.7849 42.6671C79.7849 42.7353 79.7849 42.8035 79.7508 42.9059C79.4777 42.7353 79.2387 42.5989 78.9998 42.4625C77.9074 41.8486 76.7467 41.4393 75.5519 41.1323C74.2205 40.8254 72.8892 40.6207 71.5237 40.6548C70.602 40.6889 69.6461 40.8254 68.7927 41.1323C67.7344 41.5075 66.881 42.1214 66.5055 43.2469C66.1982 44.1337 66.4372 44.884 66.9834 45.6003C67.6661 46.487 68.5878 47.101 69.5778 47.5784C70.9092 48.2265 72.2747 48.7722 73.5719 49.3861C75.074 50.1023 76.576 50.8186 77.8391 51.8759C78.9315 52.7967 79.9215 53.8199 80.4677 55.1842C80.7749 56.0027 81.048 56.8554 81.048 57.7763C81.1846 58.322 81.2528 58.8677 81.2187 59.4134Z" fill="black"/>
<path d="M14.2526 99V89.792H11.0766V87.8H19.5166V89.792H16.3246V99H14.2526ZM21.7329 102.104L22.9729 98.856L19.9089 90.824H21.9649L23.7489 95.608C23.7969 95.72 23.8423 95.8427 23.8849 95.976C23.9276 96.1093 23.9676 96.2427 24.0049 96.376C24.0369 96.2427 24.0743 96.112 24.1169 95.984C24.1649 95.8507 24.2129 95.7253 24.2609 95.608L26.0449 90.824H28.1009L23.7969 102.104H21.7329ZM29.8496 102.248V90.824H31.8496V91.424C32.2976 90.896 32.8976 90.632 33.6496 90.632C34.3482 90.632 34.9509 90.8053 35.4576 91.152C35.9642 91.4933 36.3536 91.984 36.6256 92.624C36.8976 93.264 37.0336 94.0267 37.0336 94.912C37.0336 95.7707 36.8922 96.5227 36.6096 97.168C36.3269 97.808 35.9296 98.3067 35.4176 98.664C34.9056 99.016 34.3082 99.192 33.6256 99.192C33.2522 99.192 32.9162 99.1253 32.6176 98.992C32.3189 98.8533 32.0629 98.6507 31.8496 98.384V101.344L29.8496 102.248ZM33.3296 97.28C33.8736 97.28 34.2922 97.0747 34.5856 96.664C34.8789 96.248 35.0256 95.664 35.0256 94.912C35.0256 94.16 34.8762 93.576 34.5776 93.16C34.2789 92.744 33.8629 92.536 33.3296 92.536C33.0042 92.536 32.7189 92.5947 32.4736 92.712C32.2336 92.8293 32.0256 93.008 31.8496 93.248V96.552C31.9936 96.7813 32.1962 96.96 32.4576 97.088C32.7242 97.216 33.0149 97.28 33.3296 97.28ZM42.5613 99.192C41.7773 99.192 41.1 99.016 40.5293 98.664C39.964 98.312 39.5266 97.816 39.2173 97.176C38.9133 96.5307 38.7613 95.7733 38.7613 94.904C38.7613 94.024 38.916 93.264 39.2253 92.624C39.54 91.984 39.98 91.4933 40.5453 91.152C41.116 90.8053 41.788 90.632 42.5613 90.632C43.2226 90.632 43.8226 90.7707 44.3613 91.048C44.9 91.3253 45.3293 91.752 45.6493 92.328C45.9693 92.8987 46.1293 93.6267 46.1293 94.512C46.1293 94.6507 46.124 94.8213 46.1133 95.024C46.108 95.2213 46.0946 95.4213 46.0733 95.624H40.7373C40.7586 95.9973 40.844 96.3253 40.9933 96.608C41.148 96.8853 41.3586 97.1013 41.6253 97.256C41.892 97.4107 42.2066 97.488 42.5693 97.488C42.9586 97.488 43.2973 97.424 43.5853 97.296C43.8733 97.1627 44.1453 96.952 44.4013 96.664L45.5533 97.856C45.2013 98.256 44.7773 98.5787 44.2813 98.824C43.7853 99.0693 43.212 99.192 42.5613 99.192ZM40.7453 94.064H44.1933C44.1666 93.7067 44.0866 93.4 43.9533 93.144C43.82 92.8827 43.6333 92.6827 43.3933 92.544C43.1533 92.4053 42.8626 92.336 42.5213 92.336C42.052 92.336 41.652 92.48 41.3213 92.768C40.9906 93.056 40.7986 93.488 40.7453 94.064ZM50.6309 99.192C49.9909 99.192 49.3776 99.056 48.7909 98.784C48.2096 98.512 47.7483 98.1467 47.4069 97.688L48.7189 96.584C48.9909 96.872 49.3056 97.1013 49.6629 97.272C50.0203 97.4373 50.3616 97.52 50.6869 97.52C51.0923 97.52 51.4043 97.4533 51.6229 97.32C51.8416 97.1813 51.9509 96.9893 51.9509 96.744C51.9509 96.584 51.8976 96.4427 51.7909 96.32C51.6896 96.192 51.5083 96.064 51.2469 95.936C50.9856 95.8027 50.6176 95.6507 50.1429 95.48C49.2256 95.144 48.5749 94.7813 48.1909 94.392C47.8069 93.9973 47.6149 93.4987 47.6149 92.896C47.6149 92.224 47.8869 91.68 48.4309 91.264C48.9749 90.8427 49.6843 90.632 50.5589 90.632C51.1563 90.632 51.7056 90.744 52.2069 90.968C52.7136 91.192 53.1483 91.52 53.5109 91.952L52.2069 93.032C51.7269 92.5467 51.1669 92.304 50.5269 92.304C50.2016 92.304 49.9403 92.3653 49.7429 92.488C49.5456 92.6053 49.4469 92.7653 49.4469 92.968C49.4469 93.1653 49.5616 93.3413 49.7909 93.496C50.0256 93.6507 50.4603 93.832 51.0949 94.04C51.7243 94.2373 52.2336 94.4613 52.6229 94.712C53.0176 94.9627 53.3056 95.2533 53.4869 95.584C53.6736 95.9147 53.7669 96.296 53.7669 96.728C53.7669 97.496 53.4869 98.0987 52.9269 98.536C52.3723 98.9733 51.6069 99.192 50.6309 99.192ZM58.9333 99.192C58.1813 99.192 57.5306 99.0187 56.9813 98.672C56.432 98.3253 56.008 97.8347 55.7093 97.2C55.4106 96.56 55.2613 95.8 55.2613 94.92C55.2613 94.04 55.4106 93.28 55.7093 92.64C56.0133 92 56.4426 91.5067 56.9973 91.16C57.552 90.808 58.2053 90.632 58.9573 90.632C59.8053 90.632 60.5093 90.8293 61.0693 91.224C61.6346 91.6133 62.0426 92.192 62.2933 92.96L60.3973 93.6C60.2693 93.2587 60.0826 92.9973 59.8373 92.816C59.592 92.6293 59.3093 92.536 58.9893 92.536C58.472 92.536 58.0586 92.7493 57.7493 93.176C57.4453 93.6027 57.2933 94.184 57.2933 94.92C57.2933 95.6453 57.4426 96.2213 57.7413 96.648C58.04 97.0747 58.4426 97.288 58.9493 97.288C59.3066 97.288 59.6106 97.1867 59.8613 96.984C60.1173 96.7813 60.3066 96.4853 60.4293 96.096L62.3173 96.664C62.0773 97.5013 61.6693 98.1333 61.0933 98.56C60.5226 98.9813 59.8026 99.192 58.9333 99.192ZM64.2714 99V90.824H66.2714V91.704C66.4208 91.3893 66.6554 91.1333 66.9754 90.936C67.2954 90.7333 67.6314 90.632 67.9834 90.632C68.5648 90.632 69.0554 90.832 69.4554 91.232L69.1754 93.064C68.9568 92.8827 68.7434 92.7547 68.5354 92.68C68.3274 92.6053 68.0981 92.568 67.8474 92.568C67.5168 92.568 67.2341 92.6453 66.9994 92.8C66.7648 92.9547 66.5834 93.1787 66.4554 93.472C66.3328 93.7653 66.2714 94.1173 66.2714 94.528V99H64.2714ZM70.8656 99V90.824H72.8656V99H70.8656ZM71.8656 89.8C71.5456 89.8 71.2682 89.6853 71.0336 89.456C70.8042 89.2213 70.6896 88.944 70.6896 88.624C70.6896 88.304 70.8042 88.032 71.0336 87.808C71.2629 87.5787 71.5402 87.464 71.8656 87.464C72.2016 87.464 72.4816 87.576 72.7056 87.8C72.9296 88.024 73.0416 88.2987 73.0416 88.624C73.0416 88.9493 72.9269 89.2267 72.6976 89.456C72.4736 89.6853 72.1962 89.8 71.8656 89.8ZM75.3808 102.248V90.824H77.3808V91.424C77.8288 90.896 78.4288 90.632 79.1808 90.632C79.8795 90.632 80.4821 90.8053 80.9888 91.152C81.4955 91.4933 81.8848 91.984 82.1568 92.624C82.4288 93.264 82.5648 94.0267 82.5648 94.912C82.5648 95.7707 82.4235 96.5227 82.1408 97.168C81.8581 97.808 81.4608 98.3067 80.9488 98.664C80.4368 99.016 79.8395 99.192 79.1568 99.192C78.7835 99.192 78.4475 99.1253 78.1488 98.992C77.8501 98.8533 77.5941 98.6507 77.3808 98.384V101.344L75.3808 102.248ZM78.8608 97.28C79.4048 97.28 79.8235 97.0747 80.1168 96.664C80.4101 96.248 80.5568 95.664 80.5568 94.912C80.5568 94.16 80.4075 93.576 80.1088 93.16C79.8101 92.744 79.3941 92.536 78.8608 92.536C78.5355 92.536 78.2501 92.5947 78.0048 92.712C77.7648 92.8293 77.5568 93.008 77.3808 93.248V96.552C77.5248 96.7813 77.7275 96.96 77.9888 97.088C78.2555 97.216 78.5461 97.28 78.8608 97.28ZM86.8742 99.192C86.2235 99.192 85.7355 99.0133 85.4102 98.656C85.0849 98.2987 84.9222 97.7653 84.9222 97.056V92.576H83.7302V90.824H84.9222V88.4L86.9062 87.448V90.824H88.7622V92.576H86.9062V96.696C86.9062 96.952 86.9569 97.1413 87.0582 97.264C87.1649 97.3867 87.3302 97.448 87.5542 97.448C87.9489 97.448 88.3809 97.3253 88.8502 97.08L88.6182 98.824C88.3729 98.9467 88.1062 99.0373 87.8182 99.096C87.5302 99.16 87.2155 99.192 86.8742 99.192Z" fill="black"/>
</svg>
