<svg width="100" height="105" viewBox="0 0 100 105" fill="none" xmlns="http://www.w3.org/2000/svg">
<path d="M41.0176 69.1146C36.0249 67.6931 31.634 65.0758 27.8004 61.4206C26.5968 61.8493 25.3709 62.278 24.1227 62.6841C23.5432 62.8646 22.9637 62.7969 22.3619 62.5713C21.292 62.1652 20.6456 61.3755 20.1776 60.4052C19.5312 59.1191 18.7065 57.9458 18.0601 56.6597C17.4806 55.4639 16.6337 54.426 16.1433 53.185C15.8981 52.5758 15.2518 52.1697 15.2518 51.4025C14.6723 50.4549 15.2295 49.62 15.5638 48.7852C15.653 48.5596 15.7644 48.2662 15.965 48.176C16.7674 47.815 17.1686 47.0027 17.8373 46.5063C18.1493 46.2807 18.4836 46.0325 18.8403 45.7617C18.3276 43.167 17.8818 40.5722 17.8818 37.9097C17.8818 35.2699 18.3499 32.7202 18.8403 30.1931C17.971 29.3809 17.1686 28.5912 16.3216 27.8466C15.4524 27.0794 14.9397 26.1318 15.0512 25.139C15.118 24.5975 15.274 24.0108 15.5415 23.5596C16.3662 22.2283 17.124 20.8294 17.9264 19.4756C18.5728 18.3926 19.13 17.2644 19.8433 16.204C20.2222 15.6625 20.4451 15.0307 20.824 14.4666C21.5595 13.4061 23.0306 12.8872 24.2341 13.2482C25.304 13.5641 26.307 14.0379 27.3992 14.241C27.5106 14.2635 27.5998 14.4215 27.7112 14.5343C31.5672 10.9016 35.9581 8.30686 40.9953 6.79513C41.1959 6.18592 41.2405 5.53159 41.4857 4.89982C41.664 4.42599 41.6194 3.83935 41.7086 3.3204C41.9537 1.96661 42.7784 1.1769 43.9597 0.770758C44.3832 0.635379 44.8067 0.5 45.3194 0.5C48.4398 0.545126 51.5602 0.545126 54.6807 0.5C55.5722 0.5 56.33 0.861011 57.0433 1.26715C57.6896 1.6056 58.0463 2.32762 58.2246 3.00451C58.5366 4.24549 58.7149 5.50903 58.9601 6.81769C63.9751 8.26173 68.366 10.8565 72.1997 14.5117C73.4032 14.083 74.6291 13.6543 75.8773 13.2482C76.4568 13.0677 77.0363 13.1354 77.6381 13.361C78.708 13.7671 79.3544 14.5569 79.8224 15.5271C80.4688 16.8132 81.2935 17.9865 81.9399 19.2726C82.5194 20.4684 83.3663 21.5063 83.8567 22.7473C84.1019 23.3565 84.7482 23.7626 84.7482 24.5298C85.3278 25.4774 84.7705 26.3123 84.4362 27.1471C84.347 27.3727 84.2356 27.6661 84.035 27.7563C83.2326 28.1173 82.8314 28.9296 82.1627 29.426C81.8507 29.6516 81.5164 29.8998 81.1597 30.1706C81.6724 32.7653 82.1182 35.3601 82.1182 38.0226C82.1182 40.6625 81.717 43.2121 81.1597 45.7392C82.029 46.5514 82.8314 47.3412 83.6784 48.0857C84.5476 48.8529 85.0603 49.8005 84.9488 50.7933C84.882 51.3348 84.7482 51.9215 84.4585 52.3727C83.6561 53.6814 82.8983 55.0352 82.1182 56.3664C81.1375 58.0135 80.3351 59.796 79.1983 61.3529C78.9977 62.2103 78.1953 62.278 77.6158 62.5939C76.9917 62.9323 76.3677 62.8421 75.6767 62.639C74.6514 62.3457 73.6707 61.8267 72.6008 61.6913C72.4894 61.6688 72.4002 61.5108 72.2888 61.398C68.4328 65.0758 64.0642 67.6931 58.9601 69.1597C58.7149 70.3782 58.492 71.6417 58.2246 72.8827C57.9571 74.1011 57.1547 74.8682 56.018 75.2292C55.5945 75.3646 55.1487 75.5 54.6584 75.5C51.5379 75.4549 48.4175 75.4549 45.2971 75.5C44.4055 75.5 43.6477 75.139 42.9345 74.7329C42.2881 74.3944 41.9092 73.6724 41.7754 72.9955C41.5303 71.6643 41.2851 70.4233 41.0176 69.1146ZM42.4664 49.2365C42.9122 48.9883 43.4248 48.8303 43.4471 48.2888C43.4917 47.4765 43.6031 46.6417 43.4248 45.8745C43.1128 44.5659 42.5555 43.3023 42.2212 41.9937C41.9983 41.1588 41.508 40.3691 41.5303 39.4666C40.817 37.6841 40.3712 35.8114 39.7694 34.0063C39.2791 32.5171 38.9225 30.9829 38.3875 29.5162C38.0978 28.704 38.0309 27.8014 37.496 27.0794C37.4514 27.0117 37.4291 26.9666 37.4291 26.9666C36.8273 26.5605 36.2032 26.6958 35.6683 26.6958C35.3563 26.9892 35.0888 27.2374 34.8436 27.463C34.8213 28.185 34.3087 28.7491 34.3978 29.4486C33.6177 31.2085 33.2834 33.1038 32.637 34.9088C32.3027 35.8339 32.1021 36.7816 31.8346 37.7292C31.5895 38.6769 31.0545 39.5343 31.0545 40.5496C30.2075 42.4675 29.7841 44.5208 29.16 46.5289C29.0039 47.0253 28.9148 47.4991 29.2268 47.9729C29.316 48.1083 29.2714 48.3114 29.2714 48.2888C29.628 48.6724 29.8955 48.9431 30.1184 49.2139C30.5419 49.2139 30.9877 49.2139 31.4557 49.2139C31.7678 48.8078 32.0798 48.4242 32.3696 48.0406C32.3027 46.7545 32.5702 45.8971 33.1497 44.5208C35.334 44.5208 37.5183 44.5208 39.7026 44.5208C39.8809 45.2428 39.97 45.9422 40.2152 46.5966C40.3267 46.8673 40.4381 47.1381 40.3935 47.4088C40.3267 48.2437 40.5941 48.898 41.5303 49.2139C41.7531 49.2365 42.0875 49.2365 42.4664 49.2365ZM47.682 49.2365C48.2838 49.1913 48.9747 49.3718 49.4651 48.8755C49.6434 48.6498 49.7994 48.4242 50.0223 48.1083C50.0223 45.852 50.0223 43.4829 50.0223 41.1137C51.6494 41.1137 53.2542 41.046 54.8367 41.1363C55.7951 41.1814 56.5752 40.8881 57.333 40.4143C57.6896 40.1886 58.0017 39.8502 58.3137 39.5343C59.1384 38.722 59.5396 37.7292 59.5619 36.556C59.5619 34.7058 59.5619 32.8782 59.5619 31.028C59.5619 30.7572 59.495 30.4639 59.4282 30.1931C59.183 29.2229 58.6703 28.5009 57.9794 27.8691C57.177 27.1245 56.2409 26.6733 55.1264 26.6733C52.6301 26.6733 50.156 26.6733 47.6374 26.6733C47.3922 26.944 47.147 27.2148 46.8573 27.4856C46.8573 34.435 46.8573 41.4296 46.8573 48.4468C47.147 48.6949 47.4145 48.9657 47.682 49.2365ZM63.7299 49.2365C65.2678 49.2365 66.828 49.2365 68.366 49.2365C68.6334 48.9657 68.9009 48.6949 69.1684 48.4468C69.1684 48.0181 69.1684 47.6119 69.1684 47.1832C69.1684 47.1381 69.1684 47.1155 69.1684 47.093C68.834 46.4612 68.3214 46.0776 67.6527 46.0099C67.6527 40.6173 67.6527 35.2473 67.6527 29.9901C68.1431 29.7419 68.5666 29.5162 69.0569 29.2455C69.1238 28.6588 69.1684 28.0496 69.213 27.6209C68.8563 27.2148 68.6112 26.9215 68.4106 26.6958C66.8058 26.6958 65.2455 26.6958 63.8636 26.6958C63.4847 27.0343 63.2173 27.2825 62.8829 27.5984C62.9498 28.1399 63.039 28.7491 63.1058 29.2681C63.6407 29.5388 64.0642 29.7644 64.4431 29.9675C64.4431 35.3375 64.4431 40.7076 64.4431 46.0325C64.2203 46.0776 63.9751 46.0325 63.8859 46.1453C63.5739 46.4612 63.039 46.5514 62.9275 47.0704C62.9275 47.5217 62.9275 47.9729 62.9275 48.4242C63.195 48.6949 63.4624 48.9657 63.7299 49.2365Z" fill="black"/>
<path d="M38.5213 41.0679C37.2063 41.113 35.8243 41.1356 34.4424 41.1807C34.3979 41.1807 34.331 41.2709 34.1973 41.3838C34.2196 39.9848 34.9997 38.8567 35.0888 37.5706C35.7575 36.4424 35.8243 35.1112 36.2701 33.8477C36.4039 33.983 36.6045 34.1184 36.6045 34.2312C36.6267 35.2014 37.184 36.0363 37.3623 36.9614C37.496 37.5931 37.8526 38.2024 37.9418 38.8341C38.0309 39.6464 38.5659 40.2556 38.5213 41.0679Z" fill="black"/>
<path d="M56.4641 36.6915C56.3081 36.9397 56.1743 37.1879 55.996 37.4135C55.684 37.7745 55.2828 37.9776 54.7701 37.955C53.2099 37.9325 51.6497 37.955 50.0449 37.955C50.0449 35.27 50.0449 32.585 50.0449 29.8323C51.672 29.8323 53.3437 29.8097 54.993 29.8323C55.7731 29.8549 56.4418 30.6671 56.4641 31.5245C56.4641 32.946 56.4641 34.3675 56.4641 35.789C56.4641 36.1049 56.4641 36.3982 56.4641 36.6915Z" fill="black"/>
<path d="M19.2577 99.5V88.3H24.3537C25.287 88.3 26.023 88.4627 26.5617 88.788C27.1057 89.108 27.4924 89.532 27.7217 90.06C27.9564 90.588 28.0737 91.156 28.0737 91.764C28.0737 92.1853 27.991 92.612 27.8257 93.044C27.6657 93.476 27.4204 93.8653 27.0897 94.212C26.759 94.5587 26.343 94.8147 25.8417 94.98L28.0497 99.5H25.7217L23.6017 95.26H21.3297V99.5H19.2577ZM21.3297 93.308H24.3857C24.775 93.308 25.0817 93.236 25.3057 93.092C25.535 92.9427 25.6977 92.7507 25.7937 92.516C25.8897 92.2813 25.9377 92.0333 25.9377 91.772C25.9377 91.5373 25.8924 91.3027 25.8017 91.068C25.711 90.8333 25.5537 90.6387 25.3297 90.484C25.1057 90.3293 24.791 90.252 24.3857 90.252H21.3297V93.308ZM33.0769 99.692C32.2929 99.692 31.6156 99.516 31.0449 99.164C30.4796 98.812 30.0423 98.316 29.7329 97.676C29.4289 97.0307 29.2769 96.2733 29.2769 95.404C29.2769 94.524 29.4316 93.764 29.7409 93.124C30.0556 92.484 30.4956 91.9933 31.0609 91.652C31.6316 91.3053 32.3036 91.132 33.0769 91.132C33.7383 91.132 34.3383 91.2707 34.8769 91.548C35.4156 91.8253 35.8449 92.252 36.1649 92.828C36.4849 93.3987 36.6449 94.1267 36.6449 95.012C36.6449 95.1507 36.6396 95.3213 36.6289 95.524C36.6236 95.7213 36.6103 95.9213 36.5889 96.124H31.2529C31.2743 96.4973 31.3596 96.8253 31.5089 97.108C31.6636 97.3853 31.8743 97.6013 32.1409 97.756C32.4076 97.9107 32.7223 97.988 33.0849 97.988C33.4743 97.988 33.8129 97.924 34.1009 97.796C34.3889 97.6627 34.6609 97.452 34.9169 97.164L36.0689 98.356C35.7169 98.756 35.2929 99.0787 34.7969 99.324C34.3009 99.5693 33.7276 99.692 33.0769 99.692ZM31.2609 94.564H34.7089C34.6823 94.2067 34.6023 93.9 34.4689 93.644C34.3356 93.3827 34.1489 93.1827 33.9089 93.044C33.6689 92.9053 33.3783 92.836 33.0369 92.836C32.5676 92.836 32.1676 92.98 31.8369 93.268C31.5063 93.556 31.3143 93.988 31.2609 94.564ZM41.1466 99.692C40.5066 99.692 39.8932 99.556 39.3066 99.284C38.7252 99.012 38.2639 98.6467 37.9226 98.188L39.2346 97.084C39.5066 97.372 39.8212 97.6013 40.1786 97.772C40.5359 97.9373 40.8772 98.02 41.2026 98.02C41.6079 98.02 41.9199 97.9533 42.1386 97.82C42.3572 97.6813 42.4666 97.4893 42.4666 97.244C42.4666 97.084 42.4132 96.9427 42.3066 96.82C42.2052 96.692 42.0239 96.564 41.7626 96.436C41.5012 96.3027 41.1332 96.1507 40.6586 95.98C39.7412 95.644 39.0906 95.2813 38.7066 94.892C38.3226 94.4973 38.1306 93.9987 38.1306 93.396C38.1306 92.724 38.4026 92.18 38.9466 91.764C39.4906 91.3427 40.1999 91.132 41.0746 91.132C41.6719 91.132 42.2212 91.244 42.7226 91.468C43.2292 91.692 43.6639 92.02 44.0266 92.452L42.7226 93.532C42.2426 93.0467 41.6826 92.804 41.0426 92.804C40.7172 92.804 40.4559 92.8653 40.2586 92.988C40.0612 93.1053 39.9626 93.2653 39.9626 93.468C39.9626 93.6653 40.0772 93.8413 40.3066 93.996C40.5412 94.1507 40.9759 94.332 41.6106 94.54C42.2399 94.7373 42.7492 94.9613 43.1386 95.212C43.5332 95.4627 43.8212 95.7533 44.0026 96.084C44.1892 96.4147 44.2826 96.796 44.2826 97.228C44.2826 97.996 44.0026 98.5987 43.4426 99.036C42.8879 99.4733 42.1226 99.692 41.1466 99.692ZM48.4992 99.692C47.8485 99.692 47.3605 99.5133 47.0352 99.156C46.7099 98.7987 46.5472 98.2653 46.5472 97.556V93.076H45.3552V91.324H46.5472V88.9L48.5312 87.948V91.324H50.3872V93.076H48.5312V97.196C48.5312 97.452 48.5819 97.6413 48.6832 97.764C48.7899 97.8867 48.9552 97.948 49.1792 97.948C49.5739 97.948 50.0059 97.8253 50.4752 97.58L50.2432 99.324C49.9979 99.4467 49.7312 99.5373 49.4432 99.596C49.1552 99.66 48.8405 99.692 48.4992 99.692ZM51.6777 95.724V93.812H55.8217V95.724H51.6777ZM57.3003 99.5L61.5643 88.3H63.5323L67.8123 99.5H65.5803L64.6923 97.132H60.4123L59.5403 99.5H57.3003ZM61.0843 95.236H64.0043L62.8843 92.236C62.847 92.1453 62.807 92.044 62.7643 91.932C62.7216 91.82 62.6816 91.708 62.6443 91.596C62.607 91.4787 62.575 91.3773 62.5483 91.292C62.5216 91.3773 62.4896 91.4787 62.4523 91.596C62.415 91.708 62.375 91.82 62.3323 91.932C62.2896 92.044 62.2496 92.1453 62.2123 92.236L61.0843 95.236ZM69.5371 102.748V91.324H71.5371V91.924C71.9851 91.396 72.5851 91.132 73.3371 91.132C74.0357 91.132 74.6384 91.3053 75.1451 91.652C75.6517 91.9933 76.0411 92.484 76.3131 93.124C76.5851 93.764 76.7211 94.5267 76.7211 95.412C76.7211 96.2707 76.5797 97.0227 76.2971 97.668C76.0144 98.308 75.6171 98.8067 75.1051 99.164C74.5931 99.516 73.9957 99.692 73.3131 99.692C72.9397 99.692 72.6037 99.6253 72.3051 99.492C72.0064 99.3533 71.7504 99.1507 71.5371 98.884V101.844L69.5371 102.748ZM73.0171 97.78C73.5611 97.78 73.9797 97.5747 74.2731 97.164C74.5664 96.748 74.7131 96.164 74.7131 95.412C74.7131 94.66 74.5637 94.076 74.2651 93.66C73.9664 93.244 73.5504 93.036 73.0171 93.036C72.6917 93.036 72.4064 93.0947 72.1611 93.212C71.9211 93.3293 71.7131 93.508 71.5371 93.748V97.052C71.6811 97.2813 71.8837 97.46 72.1451 97.588C72.4117 97.716 72.7024 97.78 73.0171 97.78ZM78.8031 99.5V91.324H80.8031V99.5H78.8031ZM79.8031 90.3C79.4831 90.3 79.2057 90.1853 78.9711 89.956C78.7417 89.7213 78.6271 89.444 78.6271 89.124C78.6271 88.804 78.7417 88.532 78.9711 88.308C79.2004 88.0787 79.4777 87.964 79.8031 87.964C80.1391 87.964 80.4191 88.076 80.6431 88.3C80.8671 88.524 80.9791 88.7987 80.9791 89.124C80.9791 89.4493 80.8644 89.7267 80.6351 89.956C80.4111 90.1853 80.1337 90.3 79.8031 90.3Z" fill="black"/>
</svg>
