<svg version="1.1" id="Layer_1" xmlns="http://www.w3.org/2000/svg" xmlns:xlink="http://www.w3.org/1999/xlink" x="0px" y="0px"
	 width="100%" viewBox="0 0 688 480" enable-background="new 0 0 688 480" xml:space="preserve">
<path fill="#FFFCF3" opacity="1.000000" stroke="none" 
	d="
M536.697754,278.999756 
	C536.697876,241.980774 536.697876,205.461807 536.697876,167.801025 
	C539.511902,170.488556 539.019165,172.594833 539.022461,174.482300 
	C539.134277,237.476135 539.210205,300.470062 539.268066,363.463959 
	C539.274048,369.993713 538.889404,370.306641 531.977478,370.307159 
	C435.326141,370.314423 338.674835,370.318726 242.023499,370.319946 
	C222.026825,370.320190 202.030029,370.336456 182.033585,370.264801 
	C178.868179,370.253479 175.987915,370.076233 175.525635,374.373779 
	C175.320206,376.283417 173.499741,376.310516 171.970276,376.311188 
	C154.971542,376.318634 137.972733,376.288879 120.974167,376.341949 
	C118.328621,376.350189 117.535393,375.132385 117.531410,372.679993 
	C117.504082,355.860626 117.381836,339.041382 117.365173,322.222015 
	C117.363594,320.628326 117.359322,318.414429 119.540932,318.271759 
	C124.028175,317.978210 123.668098,314.998901 123.666962,311.904633 
	C123.639183,235.913651 123.641891,159.922668 123.639374,83.931679 
	C123.639343,82.931961 123.746460,81.919525 123.625992,80.934746 
	C123.112549,76.737144 125.024643,75.542992 129.075455,75.569168 
	C152.239746,75.718857 175.405487,75.647263 198.570724,75.646408 
	C292.398163,75.642944 386.225586,75.637703 480.053009,75.634140 
	C483.322021,75.634018 486.921631,76.474113 487.291199,71.285210 
	C487.423218,69.431450 489.569458,69.676849 491.029755,69.675011 
	C507.695343,69.654045 524.361084,69.694687 541.026428,69.635872 
	C543.973511,69.625465 545.264648,70.800041 545.254395,73.768204 
	C545.197510,90.266678 545.252625,106.765640 545.157654,123.263794 
	C545.137878,126.696159 540.285339,129.388397 536.554504,128.007507 
	C533.271057,126.792191 529.973816,127.461777 526.687744,127.407715 
	C523.851013,127.361038 523.747986,129.503052 523.752869,131.630615 
	C523.791870,148.440399 523.814880,165.250214 523.841248,182.060028 
	C523.883301,208.871246 523.944336,235.682449 523.959961,262.493683 
	C523.976318,290.490875 523.953979,318.488037 523.936523,346.485229 
	C523.931152,355.103485 523.913147,355.111328 515.483887,355.110291 
	C438.158997,355.100861 360.834137,355.089020 283.509247,355.076782 
	C249.846176,355.071472 216.183121,355.062653 182.520050,355.057892 
	C176.382004,355.057037 173.437592,359.963226 175.975250,365.726318 
	C177.092102,368.262756 179.206284,367.693909 181.096207,367.696472 
	C201.427475,367.724213 221.758804,367.690948 242.090118,367.691437 
	C337.580414,367.693756 433.070679,367.702271 528.560974,367.705841 
	C536.675537,367.706146 536.689392,367.696686 536.691772,359.489227 
	C536.699646,332.826080 536.696472,306.162903 536.697754,278.999756 
M154.193237,289.500000 
	C154.193756,294.331940 154.195526,299.163849 154.194565,303.995789 
	C154.191803,317.948090 154.191360,317.948090 168.069702,317.974731 
	C175.350342,317.988708 175.353745,317.988708 175.379944,325.006683 
	C175.389267,327.506073 175.372116,330.005524 175.376694,332.504944 
	C175.389771,339.631256 175.391724,339.641846 182.491180,339.641907 
	C288.800262,339.642639 395.109344,339.641174 501.418427,339.637268 
	C508.627045,339.636993 508.650330,339.626007 508.651154,332.593262 
	C508.658966,266.609558 508.657623,200.625854 508.660706,134.642151 
	C508.661072,127.353767 508.666229,127.353767 501.287445,127.330673 
	C486.900482,127.285645 486.900543,127.285645 486.876617,112.796425 
	C486.865814,106.236519 486.865753,106.238686 480.166321,106.238838 
	C373.859100,106.241264 267.551910,106.242867 161.244690,106.245560 
	C154.221207,106.245743 154.206573,106.249130 154.205673,113.040611 
	C154.197983,171.527069 154.195984,230.013535 154.193237,289.500000 
M409.188110,77.422607 
	C379.392761,76.939804 349.604126,77.978577 319.799713,77.540886 
	C289.681549,77.098579 259.546112,77.998795 229.420197,77.867630 
	C203.632339,77.755363 177.848785,77.034554 152.059128,77.868767 
	C145.904694,78.067841 139.721771,78.079796 133.577530,77.729485 
	C125.380234,77.262115 125.360855,77.073967 125.360344,85.427650 
	C125.357048,139.570679 125.367004,193.713699 125.374611,247.856720 
	C125.377647,269.513580 125.474197,291.171143 125.311134,312.826721 
	C125.281258,316.794312 126.555847,318.398193 130.457626,317.961548 
	C131.611633,317.832336 132.791000,317.833160 133.953018,317.890564 
	C137.281921,318.055115 138.939926,316.692444 138.683441,313.185425 
	C138.525879,311.031189 138.654282,308.856018 138.654434,306.690247 
	C138.659088,236.720963 138.690842,166.751648 138.601791,96.782486 
	C138.596390,92.539337 139.361191,90.555351 144.296570,90.574066 
	C188.938171,90.743355 233.580719,90.657051 278.222992,90.657944 
	C346.021484,90.659294 413.820007,90.647003 481.618378,90.739502 
	C485.427124,90.744698 487.309296,89.680397 486.889709,85.662872 
	C486.734650,84.178154 486.776459,82.664757 486.830322,81.168098 
	C486.928528,78.437424 485.736938,77.106003 482.942841,77.368919 
	C475.303009,78.087776 467.643250,77.423149 460.007019,77.651054 
	C443.368500,78.147652 426.745453,77.463776 409.188110,77.422607 
M517.505737,84.392670 
	C514.016907,84.397179 510.523499,84.514488 507.040558,84.373421 
	C503.773834,84.241096 502.136139,85.236908 502.270325,88.886475 
	C502.496063,95.025299 502.488678,101.183838 502.274567,107.323456 
	C502.147705,110.962044 503.757904,111.893486 507.050568,111.802078 
	C513.026978,111.636169 519.018250,111.568893 524.989502,111.806236 
	C528.858215,111.960007 529.915955,110.276276 529.720276,106.753845 
	C529.517822,103.110275 529.686523,99.446297 529.686035,95.791245 
	C529.684570,84.345428 529.683350,84.345428 517.505737,84.392670 
M132.896194,351.802032 
	C132.909042,352.635101 133.029297,353.482910 132.917160,354.298798 
	C132.227859,359.313782 134.264587,361.213135 139.372589,360.834961 
	C144.843246,360.429932 150.364807,360.618042 155.861771,360.703003 
	C158.618179,360.745636 159.797073,359.656921 159.766266,356.880615 
	C159.694183,350.382843 159.675232,343.881989 159.800446,337.385590 
	C159.859726,334.310577 158.520554,333.302368 155.582809,333.360962 
	C149.253204,333.487244 142.918594,333.455383 136.587524,333.372925 
	C133.685226,333.335114 132.249496,334.380859 132.421570,337.474274 
	C132.670532,341.950684 132.723343,346.437988 132.896194,351.802032 
z"/>
<path fill="#FFFCF3" opacity="1.000000" stroke="none" 
	d="
M397.355225,198.355789 
	C393.283813,202.293930 389.462891,205.982513 386.074829,209.253220 
	C385.961060,211.844147 387.310303,212.758179 388.314423,213.778870 
	C409.802307,235.620636 431.347198,257.406433 452.804535,279.278107 
	C456.466736,283.011017 461.351166,284.315918 465.760468,286.584045 
	C467.363647,287.408722 469.429535,287.944061 469.066559,290.342743 
	C468.656219,293.054749 466.323608,292.309662 464.672302,292.327271 
	C456.510895,292.414459 448.345703,292.253815 440.186798,292.421600 
	C437.066742,292.485748 434.949860,291.347229 432.831787,289.126190 
	C411.455902,266.710999 389.981934,244.389404 368.525940,222.050690 
	C367.509277,220.992188 366.683472,219.664078 365.017090,219.283020 
	C363.629211,220.650040 364.222992,222.420731 364.217255,223.972427 
	C364.155182,240.796722 364.270355,257.622284 364.102783,274.445129 
	C364.065582,278.179840 365.376221,280.230255 368.795898,281.616364 
	C372.482391,283.110596 375.957031,285.134979 379.496277,286.981384 
	C380.863770,287.694855 382.099030,288.642273 381.829742,290.446320 
	C381.514984,292.554871 379.760559,292.333588 378.322815,292.335876 
	C361.665253,292.362701 345.007538,292.360718 328.350006,292.322021 
	C326.920685,292.318695 325.203583,292.507416 324.903442,290.363159 
	C324.647339,288.533539 325.808472,287.596252 327.185242,286.882812 
	C331.028137,284.891510 334.843536,282.832458 338.778473,281.038574 
	C341.529938,279.784180 342.725555,278.066376 342.718079,274.906097 
	C342.627960,236.759399 342.634705,198.612320 342.723816,160.465591 
	C342.730774,157.482254 341.528351,155.899933 338.988495,154.726395 
	C335.060730,152.911560 331.228088,150.890686 327.357483,148.952408 
	C325.772797,148.158829 324.552765,147.117172 324.849335,145.098114 
	C325.187531,142.795364 327.001587,142.818451 328.656036,142.815445 
	C345.147186,142.785339 361.638428,142.787827 378.129639,142.801865 
	C379.651306,142.803162 381.246826,142.906784 381.742554,144.759338 
	C382.270691,146.733047 381.139923,147.921310 379.540985,148.745560 
	C375.545074,150.805466 371.549408,152.867737 367.514404,154.849152 
	C365.604370,155.787109 364.169922,156.871780 364.181976,159.296646 
	C364.268829,176.783676 364.299042,194.270996 364.369385,211.758133 
	C364.370514,212.038010 364.652161,212.316757 365.277100,213.474625 
	C384.931824,194.153366 404.381165,175.034012 424.020538,155.727859 
	C420.587280,152.147171 416.532288,151.310410 413.120972,149.386581 
	C411.340729,148.382599 409.417053,147.576691 409.821564,145.019669 
	C410.294586,142.029449 412.721619,142.785889 414.564056,142.768845 
	C427.555786,142.648804 440.548309,142.618317 453.540405,142.530228 
	C455.262451,142.518555 456.995941,142.379440 457.492310,144.582108 
	C457.857758,146.203796 457.539154,147.834961 455.802368,148.256195 
	C439.888489,152.116043 431.721710,165.965256 420.475281,175.766449 
	C412.454315,182.756622 405.201385,190.628067 397.355225,198.355789 
z"/>
<path fill="#FFFCF3" opacity="1.000000" stroke="none" 
	d="
M222.157959,306.158630 
	C217.069824,311.291870 211.743896,315.000610 204.364273,314.365662 
	C199.647110,313.959808 197.442017,311.650513 197.734024,306.934387 
	C197.795105,305.948059 198.083954,304.976837 198.252548,303.996033 
	C199.707993,295.529999 199.678207,296.273834 207.431641,298.145813 
	C215.886353,300.187103 221.662643,296.325104 223.631836,287.793213 
	C224.690094,283.208069 224.868729,278.564575 224.874176,273.905182 
	C224.917694,236.595703 224.897537,199.286072 225.021713,161.976898 
	C225.033310,158.491974 223.944122,156.374023 220.680130,155.057877 
	C217.601517,153.816467 214.685287,152.165573 211.723328,150.644791 
	C210.366257,149.948013 208.956512,149.081055 209.238983,147.290146 
	C209.584671,145.098511 211.498611,145.054260 213.146286,145.050491 
	C227.636719,145.017395 242.127335,145.021149 256.617645,145.075134 
	C258.062225,145.080505 259.770477,145.098770 260.147552,147.087173 
	C260.483551,148.858994 259.459320,149.875717 258.000671,150.606674 
	C255.024475,152.098099 252.141541,153.818420 249.062637,155.050873 
	C245.467255,156.490082 244.221359,158.732101 244.248520,162.676971 
	C244.420593,187.660492 244.495682,212.647491 244.256149,237.630020 
	C244.097809,254.143082 242.368042,270.482269 236.437683,286.114197 
	C233.468124,293.941742 228.198853,300.095306 222.157959,306.158630 
z"/>
<path fill="#FFFCF3" opacity="1.000000" stroke="none" 
	d="
M276.831116,247.971130 
	C275.370728,246.235001 275.653046,244.519318 275.650391,242.877716 
	C275.626801,228.215958 275.610077,213.554092 275.648590,198.892410 
	C275.653107,197.166931 274.984497,194.862076 277.350464,194.197174 
	C279.412170,193.617767 280.613983,195.424988 281.833344,196.780869 
	C284.117432,199.320648 285.684204,202.308121 286.213501,205.627960 
	C287.101929,211.200409 287.667694,216.825333 288.319977,222.433914 
	C288.582153,224.687958 287.920074,226.586044 286.345703,228.360352 
	C285.032288,229.840561 284.688171,231.949432 286.710327,233.120789 
	C289.282806,234.610947 289.797394,232.146835 290.402710,230.541931 
	C292.405701,225.231277 293.901398,219.854645 293.748383,214.035126 
	C293.520752,205.377258 293.672272,196.708786 293.712555,188.045059 
	C293.720062,186.430847 293.518494,184.229324 295.818573,184.240540 
	C297.992859,184.251129 298.073090,186.445282 298.089111,188.050720 
	C298.182251,197.380096 298.254852,206.711456 298.158325,216.040314 
	C298.103455,221.346527 299.637421,226.216095 301.624390,231.003662 
	C302.177673,232.336761 302.716370,234.194611 304.748566,233.232971 
	C306.772308,232.275345 306.867584,230.571930 305.999878,228.581085 
	C301.210175,217.591827 304.084808,207.377670 309.320648,197.447922 
	C309.694672,196.738541 310.376129,196.151321 311.014923,195.630234 
	C312.161682,194.694733 313.337646,193.515152 314.998260,194.234909 
	C316.523407,194.895996 316.306000,196.437439 316.308472,197.726730 
	C316.338226,213.220688 316.274780,228.715103 316.381897,244.208389 
	C316.406342,247.744522 314.681885,249.236298 311.537109,248.899719 
	C306.883850,248.401703 304.359192,250.358292 303.315033,254.764816 
	C303.094360,255.696152 302.425873,256.548950 301.860535,257.366577 
	C297.635315,263.477692 293.001953,263.825134 290.017181,257.058716 
	C287.267212,250.824646 283.517822,248.211243 276.831116,247.971130 
M312.199768,226.261810 
	C311.609283,218.864334 312.894379,211.385727 311.278503,203.985596 
	C309.024353,210.632095 306.761475,217.502930 309.047882,224.272690 
	C312.071350,233.224716 312.287354,234.046066 304.956024,239.639099 
	C305.134277,242.746155 306.836761,244.119034 309.872009,243.645767 
	C312.962097,243.163940 312.438324,240.750778 312.369843,238.586182 
	C312.249146,234.770187 312.196930,230.952042 312.199768,226.261810 
M282.783417,211.566971 
	C282.638428,208.599426 282.510620,205.626877 279.726471,202.281570 
	C279.726471,215.433823 279.699066,227.632294 279.752228,239.830429 
	C279.761597,241.976242 280.408722,243.698135 283.167542,243.779037 
	C286.437622,243.874924 287.111938,242.068542 286.990387,239.422256 
	C281.014862,235.625793 278.775879,231.436539 281.501007,226.858200 
	C284.384888,222.013077 283.730225,217.354050 282.783417,211.566971 
M294.046387,255.213013 
	C297.876038,256.560547 299.512085,254.939468 299.677246,249.633682 
	C295.139435,248.793839 295.139435,248.793839 291.816132,250.278107 
	C291.658142,252.047562 292.617004,253.384247 294.046387,255.213013 
M295.263947,231.430481 
	C294.307617,233.260727 292.500580,235.083527 295.019287,237.025406 
	C296.003815,237.784454 297.166229,237.353897 297.560242,236.447983 
	C298.525696,234.228180 297.810364,232.374512 295.263947,231.430481 
z"/>
</svg>